<svg width="654" height="715" viewBox="0 0 654 715" fill="none" xmlns="http://www.w3.org/2000/svg">
<path d="M225.05 505.391C201.193 497.908 161.438 481.538 130.57 452.073C98.8289 421.774 101.577 393.61 101.577 393.61" stroke="white" stroke-width="3"/>
<path d="M90.345 532.049C90.345 536.699 86.5759 540.468 81.9264 540.468C77.277 540.468 73.5078 536.699 73.5078 532.049C73.5078 527.4 77.277 523.631 81.9264 523.631C86.5759 523.631 90.345 527.4 90.345 532.049Z" fill="white"/>
<path d="M1.95068 657.861L81.9275 532.049L161.187 405.953" stroke="white" stroke-width="3"/>
<path d="M120.279 174.66C120.264 179.31 116.483 183.067 111.833 183.052C107.184 183.037 103.427 179.256 103.442 174.606C103.457 169.957 107.238 166.2 111.887 166.215C116.537 166.229 120.294 170.011 120.279 174.66Z" fill="white"/>
<line y1="-1.5" x2="296.868" y2="-1.5" transform="matrix(-0.532937 -0.846155 -0.846155 0.532937 185.371 294.602)" stroke="white" stroke-width="3"/>
<path d="M254.864 209.703C229.588 215.702 189.772 234.75 163.521 253.373C137.261 272.004 126.44 294.88 123.612 301.419" stroke="white" stroke-width="3"/>
<path d="M452.344 2.14453C470.584 6.35383 531.249 24.6469 568.333 63.4133C593.976 90.2186 612.549 114.226 622.587 149.938C633.567 189.005 627.638 236.369 617.91 256.573C608.181 276.778 588.445 298.667 573.946 308.021" stroke="white" stroke-width="3"/>
<path d="M475.262 713.517C493.147 707.988 553.953 685.455 592.187 639.152C615.806 610.548 627.809 586.17 635.215 549.821C643.318 510.057 637.562 461.426 624.926 439.444C612.29 417.462 604.347 404.834 583.768 383.32" stroke="white" stroke-width="3"/>
</svg>
