<svg width="1508" height="977" viewBox="0 0 1508 977" fill="none" xmlns="http://www.w3.org/2000/svg">
<path fill-rule="evenodd" clip-rule="evenodd" d="M176.015 583.268C171.437 605.165 179.099 631.479 205.444 648.666C212.692 653.394 220.32 657.047 228.204 660.22C236.337 653.251 243.823 645.471 250.88 637.332C268.376 617.154 271.987 593.645 265.715 575.458C259.482 557.385 243.388 544.125 220.075 544.125C197.417 544.125 180.63 561.194 176.015 583.268ZM237.872 663.868C245.017 657.399 251.608 650.429 257.785 643.306C277.211 620.902 281.783 594.033 274.352 572.486C266.882 550.827 247.386 535 220.075 535C192.109 535 172.354 556.141 167.073 581.403C161.754 606.842 170.84 636.989 200.449 656.305C206.727 660.401 213.347 663.773 220.106 666.71C209.296 674.775 197.347 681.317 183.822 685.427C156.207 693.82 121.297 692.286 75.0217 671.512C43.574 657.395 28.7219 637.101 20.9017 619.462C16.9626 610.577 14.7774 602.294 13.1842 595.6C12.9543 594.635 12.7326 593.683 12.5173 592.76C12.0033 590.554 11.5259 588.506 11.0617 586.794C10.4492 584.535 9.64445 581.948 8.26786 580.144L1.00137 585.674L1 585.672C1 585.672 1.04342 585.732 1.12118 585.883C1.20517 586.046 1.30958 586.276 1.43144 586.591C1.6793 587.231 1.94567 588.079 2.24408 589.179C2.66375 590.727 3.08178 592.521 3.57425 594.634C3.7974 595.592 4.03583 596.615 4.29663 597.711C5.93309 604.586 8.27068 613.507 12.5488 623.156C21.1631 642.587 37.5231 664.683 71.2768 679.835C119.018 701.267 156.24 703.348 186.481 694.157C203.058 689.119 217.318 680.758 229.906 670.667C235.866 672.919 241.858 674.945 247.746 676.936C253.062 678.733 258.294 680.502 263.341 682.383C283.796 690.003 302.247 699.663 315.581 720.349C326.793 737.745 334.848 753.575 340.058 768.31C330.707 765.283 321.454 763.5 312.95 763.5C293.066 763.5 272.086 764.816 254.082 771.69C235.839 778.656 220.656 791.339 212.725 813.682C205.368 834.408 206.918 852.543 214.367 867.098C221.77 881.562 234.765 892.046 249.56 898.05C278.845 909.933 317.193 904.822 335.482 875.404C350.51 851.231 358.05 827.353 356.369 801.219C356 795.469 355.185 789.636 353.918 783.691C361.183 787.155 368.338 791.259 375.008 795.752C384.773 802.329 393.255 809.58 399.319 816.556C405.522 823.692 408.641 829.907 408.877 834.457L418 833.985C417.602 826.305 412.79 818.136 406.217 810.574C399.505 802.852 390.367 795.092 380.116 788.187C371.165 782.157 361.178 776.657 351.003 772.386C345.673 754.703 336.491 735.935 323.262 715.41C308.35 692.274 287.691 681.715 266.534 673.833C260.912 671.739 255.319 669.846 249.792 667.976C245.779 666.618 241.801 665.271 237.872 663.868ZM343.441 779.183C332.728 775.079 322.167 772.625 312.95 772.625C293.251 772.625 273.694 773.97 257.344 780.213C241.235 786.364 228.249 797.253 221.335 816.732C214.721 835.365 216.321 850.868 222.502 862.945C228.729 875.113 239.843 884.258 252.998 889.596C279.612 900.395 312.52 895.043 327.721 870.591C342.002 847.619 348.784 825.607 347.253 801.803C346.783 794.506 345.53 786.992 343.441 779.183Z" fill="#FA3839" stroke="black"/>
<path fill-rule="evenodd" clip-rule="evenodd" d="M1504.06 65.2172C1507.88 94.4036 1508.41 128.374 1503.06 155.392C1492.47 208.855 1471.13 257.716 1416.1 298.743C1404.49 307.397 1388.1 313.508 1370.04 317.323C1369.15 320.263 1368.23 323.135 1367.29 325.913C1363.51 337.095 1359.26 347.086 1354.74 353.876C1340.8 374.82 1326.5 391.152 1307.33 401.637C1288.11 412.147 1264.58 416.474 1232.73 414.559C1209.33 413.153 1186.39 403.554 1167.34 391.723C1148.3 379.895 1132.7 365.559 1124 354.135L1131.95 348.057C1139.79 358.348 1154.42 371.902 1172.62 383.206C1190.81 394.507 1212.13 403.282 1233.33 404.555C1264 406.399 1285.49 402.166 1302.54 392.841C1319.63 383.491 1332.84 368.713 1346.42 348.317C1350.2 342.636 1354.11 333.641 1357.82 322.696C1358.19 321.598 1358.56 320.484 1358.92 319.355C1349.36 320.845 1339.51 321.741 1329.81 322.077C1313.48 322.643 1297.25 321.636 1282.99 319.075C1268.82 316.532 1256.17 312.383 1247.32 306.393C1213.46 283.485 1196.54 240.597 1212.5 198.166C1220.6 176.632 1237.35 162.09 1254.82 153.683C1272.15 145.346 1290.94 142.692 1303.81 145.786C1336.08 153.544 1378.06 179.224 1384.72 227.222C1385.55 233.216 1385.04 242.568 1383.74 253.196C1382.41 263.976 1380.2 276.536 1377.38 289.185C1376.1 294.922 1374.69 300.694 1373.17 306.34C1388.02 302.742 1400.99 297.51 1410.12 290.704C1462.64 251.556 1482.99 205.209 1493.24 153.442C1498.31 127.845 1497.88 95.0452 1494.14 66.5222C1492.27 52.291 1489.6 39.2764 1486.46 28.892C1483.23 18.255 1479.74 11.1698 1476.65 8.01311L1483.8 1C1488.71 6.02786 1492.76 15.1969 1496.03 25.9816C1499.37 37.019 1502.14 50.5937 1504.06 65.2172ZM1362.16 308.653C1364.14 301.638 1365.98 294.306 1367.61 286.998C1370.38 274.614 1372.53 262.379 1373.81 251.972C1375.11 241.416 1375.44 233.193 1374.81 228.6C1368.95 186.401 1331.74 162.807 1301.47 155.532C1291.46 153.123 1275.06 155.063 1259.15 162.717C1243.39 170.301 1228.85 183.147 1221.87 201.7C1207.67 239.444 1222.58 277.566 1252.92 298.087C1260.11 302.953 1271.19 306.776 1284.75 309.21C1298.22 311.628 1313.73 312.607 1329.47 312.061C1340.59 311.675 1351.69 310.533 1362.16 308.653Z" fill="#FA3839" stroke="black"/>
<path fill-rule="evenodd" clip-rule="evenodd" d="M612.006 411.953C612.006 402.564 619.617 394.953 629.006 394.953H718.09C727.479 394.953 735.09 402.564 735.09 411.953V471.465H813.82V411.953C813.82 402.564 821.432 394.953 830.82 394.953H919.905C929.293 394.953 936.905 402.564 936.905 411.953V471.465H994.45C1030.55 471.465 1062.52 494.803 1073.51 529.192L1181.73 867.726C1198.85 921.278 1158.89 975.999 1102.67 975.999H463.731C408.908 975.999 369.145 923.79 383.717 870.939L477.051 532.405C486.977 496.404 519.722 471.465 557.066 471.465H612.006V411.953Z" fill="#FA3839"/>
<path d="M735.09 471.465H734.59V471.965H735.09V471.465ZM813.82 471.465V471.965H814.32V471.465H813.82ZM936.905 471.465H936.405V471.965H936.905V471.465ZM1073.51 529.192L1073.03 529.344L1073.51 529.192ZM1181.73 867.726L1181.25 867.878L1181.73 867.726ZM383.717 870.939L383.235 870.806L383.717 870.939ZM477.051 532.405L477.533 532.537L477.051 532.405ZM612.006 471.465V471.965H612.506V471.465H612.006ZM629.006 394.453C619.341 394.453 611.506 402.288 611.506 411.953H612.506C612.506 402.84 619.894 395.453 629.006 395.453V394.453ZM718.09 394.453H629.006V395.453H718.09V394.453ZM735.59 411.953C735.59 402.288 727.755 394.453 718.09 394.453V395.453C727.203 395.453 734.59 402.84 734.59 411.953H735.59ZM735.59 471.465V411.953H734.59V471.465H735.59ZM813.82 470.965H735.09V471.965H813.82V470.965ZM814.32 471.465V411.953H813.32V471.465H814.32ZM814.32 411.953C814.32 402.84 821.708 395.453 830.82 395.453V394.453C821.155 394.453 813.32 402.288 813.32 411.953H814.32ZM830.82 395.453H919.905V394.453H830.82V395.453ZM919.905 395.453C929.017 395.453 936.405 402.84 936.405 411.953H937.405C937.405 402.288 929.57 394.453 919.905 394.453V395.453ZM936.405 411.953V471.465H937.405V411.953H936.405ZM994.45 470.965H936.905V471.965H994.45V470.965ZM1073.98 529.04C1062.93 494.444 1030.77 470.965 994.45 470.965V471.965C1030.34 471.965 1062.11 495.162 1073.03 529.344L1073.98 529.04ZM1182.2 867.574L1073.98 529.04L1073.03 529.344L1181.25 867.878L1182.2 867.574ZM1102.67 976.499C1159.23 976.499 1199.43 921.449 1182.2 867.574L1181.25 867.878C1198.27 921.108 1158.55 975.499 1102.67 975.499V976.499ZM463.731 976.499H1102.67V975.499H463.731V976.499ZM383.235 870.806C368.576 923.976 408.578 976.499 463.731 976.499V975.499C409.238 975.499 369.715 923.605 384.199 871.072L383.235 870.806ZM476.569 532.272L383.235 870.806L384.199 871.072L477.533 532.537L476.569 532.272ZM557.066 470.965C519.498 470.965 486.555 496.054 476.569 532.272L477.533 532.537C487.399 496.754 519.947 471.965 557.066 471.965V470.965ZM612.006 470.965H557.066V471.965H612.006V470.965ZM611.506 411.953V471.465H612.506V411.953H611.506Z" fill="black"/>
<path d="M423.574 457.156C402.036 456.743 395.962 438.064 395.616 428.777C393.718 416.049 390.336 385.846 391.992 366.858C394.063 343.122 400.338 178.497 785.985 187.293C1102.84 194.52 1169.11 291.523 1168.07 333.318V423.101C1168.07 446.217 1151.16 455.436 1142.7 457.156H1030.87C1002.84 457.156 993.873 447.654 985.697 438.99L985.311 438.58C978.684 431.563 982.55 417.081 985.311 410.717C989.453 396.785 988.21 378.829 985.311 366.858C982.412 354.887 971.678 348.11 962.531 345.702C840.692 347.766 605.815 340.336 593.389 345.702C577.857 352.41 573.716 383.369 581.482 415.361C587.694 440.954 564.051 453.888 551.453 457.156C517.801 457.328 445.111 457.569 423.574 457.156Z" fill="#FA3839" stroke="black"/>
<circle cx="649.118" cy="905.118" r="19.1179" fill="black"/>
<ellipse cx="917.813" cy="905.118" rx="19.4655" ry="19.1179" fill="black"/>
<path d="M756.527 923.541C771.009 944.18 804.743 943.685 817.009 923.541" stroke="black" stroke-width="2"/>
<path fill-rule="evenodd" clip-rule="evenodd" d="M967.935 664.449C963.713 640.81 947.745 622.224 927.113 613.625C930.136 591.468 922.174 568.282 903.906 552.681C885.308 536.799 860.616 532.697 838.923 539.66C827.111 520.141 805.75 507.023 781.262 506.829C756.559 506.634 734.83 519.641 722.773 539.256C701.013 531.767 675.981 535.514 657.027 551.338C638.289 566.98 630.103 590.573 633.28 613.086C612.186 621.473 595.77 640.233 591.444 664.217C587.079 688.416 596.104 711.931 613.232 727.149C602.276 747.276 601.759 772.462 614.074 793.749C626.282 814.851 648.098 826.933 670.794 827.662C675.435 849.931 691.145 869.361 714.088 877.722C737.17 886.133 761.854 881.258 779.761 867C797.745 881.293 822.539 886.123 845.662 877.584C868.55 869.131 884.168 849.661 888.728 827.397C911.486 826.654 933.346 814.498 945.521 793.303C957.696 772.107 957.182 747.096 946.355 727.063C963.305 711.866 972.232 688.506 967.935 664.449Z" fill="white" stroke="black"/>
<path d="M774.586 526.797H796.154V590.06H772.789V548.487L759.309 553.006V533.123L774.586 526.797Z" fill="black"/>
<path d="M844.817 695.73C844.817 729.517 817.427 756.907 783.64 756.907C749.853 756.907 722.463 729.517 722.463 695.73C722.463 661.943 749.853 634.553 783.64 634.553C817.427 634.553 844.817 661.943 844.817 695.73Z" fill="#FBDE14" stroke="black" stroke-width="2"/>
<path d="M895.57 579.121C895.57 594.493 876.707 603.535 876.707 603.535H894.671V623.429H846.168V605.344C846.168 605.344 871.318 589.972 871.318 581.834C871.318 579.121 869.521 577.312 866.378 577.312C858.743 577.312 853.353 582.286 853.353 582.286L844.82 568.722C844.82 568.722 852.904 558.775 869.97 558.775C885.689 558.775 895.57 568.722 895.57 579.121Z" fill="black"/>
<path d="M937.328 657.222L924.581 665.447C924.581 665.447 940.06 668.189 940.06 683.269C940.06 693.323 930.044 703.377 914.11 703.377C896.81 703.377 888.615 693.323 888.615 693.323L897.265 679.614C897.265 679.614 902.728 684.64 910.468 684.64C913.655 684.64 915.476 682.812 915.476 680.528C915.476 678.243 913.655 676.415 910.468 676.415H902.728V664.533L913.655 657.222H892.713V638.028H937.328V657.222Z" fill="black"/>
<path d="M909.561 765.249H915.032V782.42H909.561V792.361H885.856V782.42H859.416V765.249L882.209 729.099H909.561V765.249ZM880.386 765.249H885.856V753.5L880.386 765.249Z" fill="black"/>
<path d="M834.088 815.663C846.835 815.663 855.941 824.705 855.941 836.46C855.941 847.763 845.925 857.71 829.991 857.71C812.691 857.71 804.496 847.763 804.496 847.763L813.146 834.2C813.146 834.2 818.609 839.173 824.983 839.173C829.08 839.173 831.356 836.912 831.356 833.747C831.356 830.583 829.08 828.322 824.983 828.322C821.341 828.322 817.699 830.13 817.699 830.13L806.772 822.897L811.325 793.057H852.298V812.046H828.625L827.714 816.567C827.714 816.567 830.446 815.663 834.088 815.663Z" fill="black"/>
<path d="M729.358 820.441C729.358 820.441 733.019 815.917 740.342 815.917C753.157 815.917 761.395 824.06 761.395 836.725C761.395 849.844 751.326 859.795 735.765 859.795C718.374 859.795 706.475 848.034 706.475 826.774C706.475 807.323 720.205 793.752 736.681 793.752C749.496 793.752 757.734 799.633 757.734 799.633L751.326 814.108C751.326 814.108 746.75 811.394 741.258 811.394C733.935 811.394 729.358 815.917 729.358 820.441ZM740.342 836.725C740.342 832.654 738.054 830.393 735.765 830.393C733.477 830.393 731.189 832.654 731.189 836.725C731.189 840.797 733.477 843.058 735.765 843.058C738.054 843.058 740.342 840.797 740.342 836.725Z" fill="black"/>
<path d="M691.181 727.014V745.993L669.46 790.276H645.023L666.292 746.896H643.213V727.014H691.181Z" fill="black"/>
<path d="M641.823 645.099C639.561 645.099 637.751 646.909 637.751 650.075C637.751 653.241 639.561 655.051 641.823 655.051C644.085 655.051 645.895 653.241 645.895 650.075C645.895 646.909 644.085 645.099 641.823 645.099ZM641.823 670.431C639.109 670.431 636.847 672.693 636.847 675.859C636.847 679.026 639.109 681.287 641.823 681.287C644.538 681.287 646.8 679.026 646.8 675.859C646.8 672.693 644.538 670.431 641.823 670.431ZM641.823 631.076C657.658 631.076 666.707 640.123 666.707 649.17C666.707 659.122 657.658 662.289 657.658 662.289V662.741C657.658 662.741 670.326 665.907 670.326 678.573C670.326 688.073 661.278 697.12 641.823 697.12C622.369 697.12 613.32 688.073 613.32 678.573C613.32 665.907 625.988 662.741 625.988 662.741V662.289C625.988 662.289 616.94 659.122 616.94 649.17C616.94 640.123 625.988 631.076 641.823 631.076Z" fill="black"/>
<path d="M699.176 593.958C699.176 593.958 695.561 598.482 688.331 598.482C675.679 598.482 667.545 590.339 667.545 577.674C667.545 564.555 677.486 554.604 692.85 554.604C710.021 554.604 721.77 566.365 721.77 587.625C721.77 607.076 708.214 620.647 691.946 620.647C679.294 620.647 671.16 614.766 671.16 614.766L677.486 600.291C677.486 600.291 682.005 603.005 687.428 603.005C694.658 603.005 699.176 598.482 699.176 593.958ZM688.331 577.674C688.331 581.745 690.591 584.006 692.85 584.006C695.109 584.006 697.369 581.745 697.369 577.674C697.369 573.602 695.109 571.341 692.85 571.341C690.591 571.341 688.331 573.602 688.331 577.674Z" fill="black"/>
<path d="M784.684 680.63C781.045 680.63 777.405 684.249 777.405 693.296C777.405 702.343 781.045 705.962 784.684 705.962C788.324 705.962 791.963 702.343 791.963 693.296C791.963 684.249 788.324 680.63 784.684 680.63ZM784.684 726.318C767.396 726.318 753.748 712.747 753.748 693.296C753.748 673.845 767.396 660.274 784.684 660.274C801.972 660.274 815.62 673.845 815.62 693.296C815.62 712.747 801.972 726.318 784.684 726.318Z" fill="black"/>
</svg>
