<svg width="1041" height="1002" viewBox="0 0 1041 1002" fill="none" xmlns="http://www.w3.org/2000/svg">
<path fill-rule="evenodd" clip-rule="evenodd" d="M678.163 61.5713C710.559 23.4045 769.119 11.7391 814.702 30.9995C862.153 51.0497 874.879 100.968 869.999 145.869C862.363 216.128 814.602 286.781 761.557 333.827C753.286 341.162 744.593 348.15 735.541 354.776C738.829 361.214 741.93 367.77 744.744 374.482C756.247 401.924 768.845 441.769 776.125 481.928C783.373 521.908 785.503 562.994 775.359 592.468C767.499 615.305 756.031 640.741 741.503 664.773C764.634 716.851 758.494 777.989 723.447 816.872C688.939 855.155 661.847 876.225 630.634 890.809C602.66 903.879 571.493 911.661 529.263 922.205C524.707 923.342 520.023 924.511 515.201 925.723C448.596 942.458 360.143 940.209 282.801 893.711C210.167 850.043 159.189 778.051 111.059 679.331C109.97 677.097 110.898 674.403 113.132 673.314C115.366 672.225 118.06 673.153 119.149 675.387C167.018 773.571 217.041 843.674 287.438 885.998C362.294 931.001 448.18 933.283 513.008 916.994C517.783 915.795 522.412 914.638 526.903 913.516C569.41 902.898 599.684 895.336 626.824 882.655C656.611 868.738 682.769 848.558 716.762 810.846C747.884 776.318 754.623 721.9 735.674 674.079C734.824 675.389 733.964 676.694 733.095 677.992C714.613 705.602 691.816 730.496 665.531 745.654C643.075 761.505 610.106 770.032 578.329 768.895C546.496 767.757 514.846 756.859 496.048 732.616C481.186 713.45 472.945 692.722 474.871 671.384C476.801 650.006 488.852 628.923 512.712 608.911C561.078 568.346 641.115 558.294 700.038 608.946C715.577 622.305 727.825 638.07 736.794 655.069C749.553 633.141 759.725 610.239 766.849 589.539C776.205 562.356 774.461 523.204 767.27 483.533C760.111 444.041 747.704 404.824 736.444 377.962C733.9 371.895 731.107 365.943 728.133 360.063C670.352 400.266 599.214 426.173 530.355 434.221C462.688 442.13 391.268 437.768 325.659 421.48C268.419 407.27 222.6 376.672 180.194 339.027C169.55 329.578 158.453 319.056 150.479 306.556C149.142 304.461 149.757 301.678 151.852 300.342C153.948 299.005 156.73 299.62 158.066 301.716C165.313 313.075 175.574 322.891 186.169 332.296C227.986 369.419 272.53 399.018 327.827 412.745C392.367 428.767 462.698 433.067 529.31 425.282C597.214 417.345 667.312 391.672 723.935 352.017C720.66 345.912 717.221 339.864 713.699 333.823C711.029 329.243 708.301 324.65 705.562 320.038C699.714 310.192 693.816 300.261 688.323 290.189C673.82 263.593 663.117 235.728 656.216 206.318C645.03 158.649 642.587 103.487 678.163 61.5713ZM731.305 346.72C739.745 340.494 747.857 333.947 755.585 327.094C807.652 280.915 853.742 212.155 861.052 144.896C865.747 101.693 853.259 57.0619 811.199 39.2898C768.957 21.441 714.683 32.4538 685.025 67.3953C652.336 105.908 653.959 157.305 664.978 204.262C671.692 232.874 682.102 259.982 696.225 285.88C701.639 295.808 707.392 305.494 713.193 315.261C715.953 319.908 718.724 324.573 721.474 329.29C724.824 335.036 728.127 340.835 731.305 346.72ZM731.322 664.153C722.717 646.304 710.358 629.686 694.171 615.771C639.093 568.424 564.019 577.626 518.496 615.807C495.856 634.795 485.489 653.867 483.835 672.193C482.177 690.557 489.186 709.079 503.16 727.101C519.725 748.464 548.325 758.816 578.651 759.901C608.951 760.985 639.961 752.757 660.501 738.188L660.676 738.064L660.862 737.957C685.585 723.752 707.517 700.023 725.616 672.986C727.565 670.074 729.468 667.127 731.322 664.153Z" fill="#0D77BE" stroke="black" stroke-linecap="round"/>
<path fill-rule="evenodd" clip-rule="evenodd" d="M378.322 402.56L249.011 363.766L196.547 538.643L196.377 538.737L196.507 538.776L196.547 538.643L280.93 492.193L325.843 577.488L325.818 577.57L325.899 577.594L325.843 577.488L378.322 402.56Z" fill="#0D77BE"/>
<path d="M196.547 538.643L249.011 363.766L378.322 402.56L325.843 577.488M196.547 538.643L196.377 538.737L196.507 538.776L196.547 538.643ZM196.547 538.643L280.93 492.193L325.843 577.488M325.843 577.488L325.818 577.57L325.899 577.594L325.843 577.488Z" stroke="black"/>
<path fill-rule="evenodd" clip-rule="evenodd" d="M547.943 417.392L413.05 411.907L405.632 594.335L405.491 594.468L405.627 594.473L405.632 594.335L475.846 528.394L540.523 599.872L540.52 599.958L540.604 599.961L540.523 599.872L547.943 417.392Z" fill="#F8DE1E"/>
<path d="M405.632 594.335L413.05 411.907L547.943 417.392L540.523 599.872M405.632 594.335L405.491 594.468L405.627 594.473L405.632 594.335ZM405.632 594.335L475.846 528.394L540.523 599.872M540.523 599.872L540.52 599.958L540.604 599.961L540.523 599.872Z" stroke="black"/>
<path fill-rule="evenodd" clip-rule="evenodd" d="M693.434 367.234L565.828 411.313L625.439 583.885L625.356 584.06L625.484 584.016L625.439 583.885L666.775 496.882L753.062 539.856L753.091 539.937L753.17 539.909L753.062 539.856L693.434 367.234Z" fill="#FA3839"/>
<path d="M625.439 583.885L565.828 411.313L693.434 367.234L753.062 539.856M625.439 583.885L625.356 584.06L625.484 584.016L625.439 583.885ZM625.439 583.885L666.775 496.882L753.062 539.856M753.062 539.856L753.091 539.937L753.17 539.909L753.062 539.856Z" stroke="black"/>
<path fill-rule="evenodd" clip-rule="evenodd" d="M788.971 257.497L697.949 357.202L832.789 480.299L832.8 480.493L832.891 480.393L832.789 480.299L827.517 384.121L923.85 380.629L923.914 380.687L923.971 380.625L923.85 380.629L788.971 257.497Z" fill="#8C7FE9"/>
<path d="M832.789 480.299L697.949 357.202L788.971 257.497L923.85 380.629M832.789 480.299L832.8 480.493L832.891 480.393L832.789 480.299ZM832.789 480.299L827.517 384.121L923.85 380.629M923.85 380.629L923.914 380.687L923.971 380.625L923.85 380.629Z" stroke="black"/>
<path fill-rule="evenodd" clip-rule="evenodd" d="M847.95 113.665L804.503 241.487L977.368 300.245L977.455 300.419L977.499 300.29L977.368 300.245L934.001 214.237L1020.87 172.44L1020.95 172.467L1020.97 172.388L1020.87 172.44L847.95 113.665Z" fill="#F8DE1E"/>
<path d="M977.368 300.245L804.503 241.487L847.95 113.665L1020.87 172.44M977.368 300.245L977.455 300.419L977.499 300.29L977.368 300.245ZM977.368 300.245L934.001 214.237L1020.87 172.44M1020.87 172.44L1020.95 172.467L1020.97 172.388L1020.87 172.44Z" stroke="black"/>
</svg>
