<svg width="1457" height="1421" viewBox="0 0 1457 1421" fill="none" xmlns="http://www.w3.org/2000/svg">
<path fill-rule="evenodd" clip-rule="evenodd" d="M1157.85 374.82C1061.54 362.351 962.576 364.429 871.586 400.259C812.789 423.412 754.523 460.32 708.208 506.499C770.892 520.286 828.301 552.181 868.888 605.884C908.569 658.388 928.209 723.656 897.73 786.301C872.336 838.495 820.21 867.839 762.065 868.3C713.55 868.685 661.606 853.559 635.748 808.45C597.43 741.605 601.754 648.939 638.257 583.078C652.245 557.839 669.919 534.076 690.22 512.183C620.048 500.366 544.214 510.803 479.066 538.722C426.35 561.314 375.937 599.471 352.039 650.902C325.791 707.392 329.034 764.599 346.961 823.375C361.663 871.578 384.714 914.18 423.155 947.822C462.548 982.298 514.908 1006.11 565.984 1019.74C628.749 1036.48 691.102 1043.24 754.513 1029.63C818.304 1015.93 867.836 1003.45 921.143 968.589C976.818 932.18 1024.69 877.741 1066.91 806.39C1084.15 768.817 1095.43 727.771 1106.52 687.381C1107.78 682.804 1109.04 678.236 1110.3 673.682L1110.45 673.133C1112.18 666.885 1113.63 661.648 1114.19 655.819C1114.42 653.345 1116.62 651.53 1119.09 651.765C1121.57 652 1123.38 654.197 1123.15 656.671C1122.52 663.305 1120.87 669.231 1119.2 675.275C1119.12 675.544 1119.05 675.814 1118.97 676.084C1117.71 680.632 1116.46 685.206 1115.19 689.8C1104.11 730.161 1092.62 772.019 1074.99 810.361L1074.89 810.572L1074.77 810.771C1032.05 883.025 983.272 938.713 926.068 976.121C871.273 1011.95 820.324 1024.7 756.402 1038.43C691.141 1052.44 627.265 1045.4 563.664 1028.43C511.686 1014.57 457.95 990.234 417.228 954.595C377.192 919.556 353.397 875.326 338.353 826C320.028 765.919 316.389 706.269 343.878 647.11C369.043 592.951 421.633 553.543 475.521 530.45C543.621 501.265 623.801 490.602 697.663 504.359C745.644 455.188 806.777 416.107 868.288 391.885C961.23 355.286 1061.89 353.321 1159.01 365.894C1161.47 366.213 1163.21 368.47 1162.89 370.935C1162.57 373.399 1160.31 375.139 1157.85 374.82ZM700.743 514.132C679.253 536.671 660.633 561.27 646.129 587.441C610.956 650.901 606.996 740.194 643.556 803.974C667.04 844.942 714.849 859.674 761.993 859.3C817.119 858.863 865.905 831.14 889.637 782.364C918.083 723.896 900.238 662.291 861.708 611.31C821.482 558.084 763.773 526.874 700.743 514.132Z" fill="#0D77BE" stroke="black" stroke-linecap="round"/>
<path fill-rule="evenodd" clip-rule="evenodd" d="M396.573 872.842L341.144 749.741L174.664 824.702L174.482 824.635L174.538 824.759L174.664 824.702L265.046 858.007L230.045 947.825L229.967 947.86L230.001 947.937L230.045 947.825L396.573 872.842Z" fill="#0D77BE"/>
<path d="M174.664 824.702L341.144 749.741L396.573 872.842L230.045 947.825M174.664 824.702L174.482 824.635L174.538 824.759L174.664 824.702ZM174.664 824.702L265.046 858.007L230.045 947.825M230.045 947.825L229.967 947.86L230.001 947.937L230.045 947.825Z" stroke="black"/>
<path fill-rule="evenodd" clip-rule="evenodd" d="M506.509 980.533L410.009 886.119L282.324 1016.62L282.13 1016.63L282.228 1016.72L282.324 1016.62L378.628 1014.68L378.787 1111.07L378.727 1111.14L378.787 1111.2L378.787 1111.07L506.509 980.533Z" fill="#F8DE1E"/>
<path d="M282.324 1016.62L410.009 886.119L506.509 980.533L378.787 1111.07M282.324 1016.62L282.13 1016.63L282.228 1016.72L282.324 1016.62ZM282.324 1016.62L378.628 1014.68L378.787 1111.07M378.787 1111.07L378.727 1111.14L378.787 1111.2L378.787 1111.07Z" stroke="black"/>
<path fill-rule="evenodd" clip-rule="evenodd" d="M942.889 948.428L817.554 998.602L885.409 1168.1L885.334 1168.28L885.46 1168.23L885.409 1168.1L922.505 1079.21L1010.76 1117.98L1010.79 1118.06L1010.87 1118.03L1010.76 1117.98L942.889 948.428Z" fill="#F8DE1E"/>
<path d="M885.409 1168.1L817.554 998.602L942.889 948.428L1010.76 1117.98M885.409 1168.1L885.334 1168.28L885.46 1168.23L885.409 1168.1ZM885.409 1168.1L922.505 1079.21L1010.76 1117.98M1010.76 1117.98L1010.79 1118.06L1010.87 1118.03L1010.76 1117.98Z" stroke="black"/>
<path fill-rule="evenodd" clip-rule="evenodd" d="M647.39 1016.9L517.502 980.085L467.716 1155.74L467.547 1155.84L467.678 1155.88L467.716 1155.74L551.379 1108.01L597.59 1192.61L597.566 1192.69L597.647 1192.71L597.59 1192.61L647.39 1016.9Z" fill="#FA3839"/>
<path d="M467.716 1155.74L517.502 980.085L647.39 1016.9L597.59 1192.61M467.716 1155.74L467.547 1155.84L467.678 1155.88L467.716 1155.74ZM467.716 1155.74L551.379 1108.01L597.59 1192.61M597.59 1192.61L597.566 1192.69L597.647 1192.71L597.59 1192.61Z" stroke="black"/>
<path fill-rule="evenodd" clip-rule="evenodd" d="M802.411 1005.32L668.654 1023.63L693.42 1204.52L693.304 1204.67L693.439 1204.66L693.42 1204.52L750.949 1127.26L827.184 1186.26L827.196 1186.34L827.279 1186.33L827.184 1186.26L802.411 1005.32Z" fill="#8C7FE9"/>
<path d="M693.42 1204.52L668.654 1023.63L802.411 1005.32L827.184 1186.26M693.42 1204.52L693.304 1204.67L693.439 1204.66L693.42 1204.52ZM693.42 1204.52L750.949 1127.26L827.184 1186.26M827.184 1186.26L827.196 1186.34L827.279 1186.33L827.184 1186.26Z" stroke="black"/>
</svg>
