<svg width="309" height="854" viewBox="0 0 309 854" fill="none" xmlns="http://www.w3.org/2000/svg">
<path d="M172.393 393.983C171.345 393.213 170.245 392.683 169.092 392.394C167.939 392.105 166.817 392.025 165.728 392.155C164.639 392.285 163.616 392.62 162.66 393.158C161.705 393.697 160.901 394.409 160.248 395.295C159.566 396.22 159.11 397.219 158.88 398.291C158.649 399.363 158.634 400.437 158.833 401.515C159.033 402.593 159.443 403.639 160.062 404.652C160.711 405.626 161.559 406.498 162.607 407.268C163.654 408.038 164.74 408.588 165.863 408.917C167.016 409.206 168.138 409.286 169.227 409.156C170.316 409.026 171.339 408.692 172.295 408.153C173.25 407.614 174.069 406.882 174.751 405.956C175.404 405.071 175.845 404.092 176.076 403.02C176.306 401.949 176.321 400.874 176.122 399.796C175.922 398.718 175.512 397.673 174.893 396.659C174.274 395.645 173.44 394.753 172.393 393.983ZM184.848 377.075C187.95 379.356 190.42 382.072 192.259 385.223C194.088 388.305 195.238 391.633 195.71 395.207C196.172 398.712 195.899 402.328 194.892 406.055C193.885 409.783 192.106 413.378 189.556 416.84C187.006 420.302 184.099 423.068 180.836 425.137C177.573 427.206 174.183 428.562 170.667 429.204C167.141 429.777 163.618 429.669 160.099 428.882C156.57 428.025 153.254 426.456 150.152 424.176C147.05 421.895 144.585 419.214 142.756 416.132C140.917 412.981 139.767 409.653 139.305 406.148C138.833 402.574 139.1 398.923 140.107 395.196C141.115 391.468 142.893 387.873 145.444 384.411C147.994 380.949 150.901 378.183 154.164 376.114C157.427 374.045 160.822 372.724 164.348 372.151C167.864 371.509 171.387 371.617 174.916 372.474C178.435 373.261 181.746 374.795 184.848 377.075Z" fill="#F8DE1E"/>
<path d="M169.092 392.394L169.214 391.909L169.092 392.394ZM165.728 392.155L165.669 391.659L165.728 392.155ZM162.66 393.158L162.415 392.723L162.66 393.158ZM158.88 398.291L159.369 398.396L158.88 398.291ZM158.833 401.515L159.325 401.424L158.833 401.515ZM160.062 404.652L159.635 404.913L159.64 404.921L159.646 404.929L160.062 404.652ZM165.863 408.917L165.722 409.397L165.732 409.399L165.741 409.402L165.863 408.917ZM169.227 409.156L169.168 408.66L169.227 409.156ZM172.295 408.153L172.049 407.718L172.295 408.153ZM176.076 403.02L176.565 403.125L176.076 403.02ZM176.122 399.796L176.614 399.705L176.614 399.705L176.122 399.796ZM174.893 396.659L174.466 396.919L174.893 396.659ZM192.259 385.223L191.827 385.475L191.829 385.478L192.259 385.223ZM195.71 395.207L196.206 395.142L196.206 395.142L195.71 395.207ZM194.892 406.055L194.409 405.925L194.892 406.055ZM180.836 425.137L180.568 424.715L180.836 425.137ZM170.667 429.204L170.747 429.698L170.757 429.696L170.667 429.204ZM160.099 428.882L159.981 429.368L159.99 429.37L160.099 428.882ZM142.756 416.132L142.324 416.384L142.326 416.387L142.756 416.132ZM139.305 406.148L139.801 406.083L139.801 406.083L139.305 406.148ZM140.107 395.196L140.59 395.326L140.107 395.196ZM154.164 376.114L154.432 376.536L154.164 376.114ZM164.348 372.151L164.428 372.645L164.438 372.643L164.348 372.151ZM174.916 372.474L174.798 372.959L174.807 372.961L174.916 372.474ZM172.689 393.58C171.595 392.776 170.436 392.216 169.214 391.909L168.97 392.879C170.054 393.151 171.096 393.65 172.096 394.386L172.689 393.58ZM169.214 391.909C168.006 391.607 166.824 391.521 165.669 391.659L165.787 392.652C166.811 392.529 167.871 392.603 168.97 392.879L169.214 391.909ZM165.669 391.659C164.514 391.797 163.428 392.152 162.415 392.723L162.906 393.593C163.804 393.087 164.763 392.774 165.787 392.652L165.669 391.659ZM162.415 392.723C161.397 393.296 160.54 394.056 159.846 394.998L160.651 395.591C161.262 394.762 162.012 394.097 162.906 393.593L162.415 392.723ZM159.846 394.998C159.124 395.978 158.637 397.042 158.39 398.186L159.369 398.396C159.584 397.397 160.009 396.463 160.651 395.591L159.846 394.998ZM158.39 398.186C158.146 399.322 158.13 400.464 158.342 401.606L159.325 401.424C159.138 400.411 159.152 399.403 159.369 398.396L158.39 398.186ZM158.342 401.606C158.553 402.749 158.987 403.851 159.635 404.913L160.489 404.392C159.899 403.426 159.513 402.437 159.325 401.424L158.342 401.606ZM159.646 404.929C160.33 405.957 161.221 406.87 162.31 407.67L162.903 406.865C161.898 406.126 161.092 405.295 160.478 404.375L159.646 404.929ZM162.31 407.67C163.399 408.471 164.537 409.049 165.722 409.397L166.004 408.437C164.942 408.126 163.909 407.605 162.903 406.865L162.31 407.67ZM165.741 409.402C166.949 409.705 168.131 409.79 169.286 409.652L169.168 408.66C168.144 408.782 167.084 408.708 165.985 408.432L165.741 409.402ZM169.286 409.652C170.441 409.514 171.527 409.159 172.54 408.588L172.049 407.718C171.151 408.224 170.192 408.537 169.168 408.66L169.286 409.652ZM172.54 408.588C173.561 408.013 174.432 407.232 175.154 406.252L174.348 405.66C173.706 406.532 172.94 407.216 172.049 407.718L172.54 408.588ZM175.154 406.252C175.848 405.31 176.319 404.266 176.565 403.125L175.586 402.915C175.371 403.918 174.959 404.831 174.348 405.66L175.154 406.252ZM176.565 403.125C176.809 401.989 176.825 400.848 176.614 399.705L175.63 399.887C175.818 400.9 175.803 401.908 175.586 402.915L176.565 403.125ZM176.614 399.705C176.402 398.563 175.968 397.46 175.32 396.398L174.466 396.919C175.056 397.885 175.442 398.874 175.63 399.887L176.614 399.705ZM175.32 396.398C174.664 395.324 173.784 394.385 172.689 393.58L172.096 394.386C173.096 395.121 173.883 395.966 174.466 396.919L175.32 396.398ZM184.551 377.478C187.601 379.72 190.024 382.386 191.827 385.475L192.691 384.971C190.816 381.758 188.298 378.991 185.144 376.673L184.551 377.478ZM191.829 385.478C193.623 388.502 194.751 391.765 195.214 395.273L196.206 395.142C195.725 391.501 194.553 388.109 192.69 384.968L191.829 385.478ZM195.214 395.273C195.667 398.706 195.401 402.255 194.409 405.925L195.375 406.185C196.398 402.4 196.677 398.717 196.206 395.142L195.214 395.273ZM194.409 405.925C193.42 409.587 191.671 413.126 189.153 416.544L189.959 417.136C192.542 413.63 194.35 409.979 195.375 406.185L194.409 405.925ZM189.153 416.544C186.636 419.962 183.773 422.683 180.568 424.715L181.104 425.559C184.425 423.453 187.376 420.643 189.959 417.136L189.153 416.544ZM180.568 424.715C177.355 426.753 174.025 428.083 170.577 428.713L170.757 429.696C174.341 429.041 177.791 427.66 181.104 425.559L180.568 424.715ZM170.587 428.711C167.124 429.273 163.666 429.168 160.209 428.394L159.99 429.37C163.57 430.171 167.157 430.28 170.747 429.697L170.587 428.711ZM160.217 428.396C156.756 427.556 153.5 426.017 150.449 423.773L149.855 424.578C153.007 426.895 156.383 428.494 159.981 429.368L160.217 428.396ZM150.449 423.773C147.397 421.529 144.978 418.897 143.187 415.877L142.326 416.387C144.191 419.531 146.703 422.261 149.855 424.578L150.449 423.773ZM143.188 415.881C141.382 412.784 140.254 409.519 139.801 406.083L138.809 406.214C139.28 409.786 140.453 413.177 142.324 416.384L143.188 415.881ZM139.801 406.083C139.338 402.579 139.599 398.994 140.59 395.326L139.624 395.065C138.601 398.852 138.328 402.57 138.809 406.214L139.801 406.083ZM140.59 395.326C141.58 391.664 143.329 388.125 145.846 384.707L145.041 384.115C142.458 387.621 140.65 391.271 139.624 395.065L140.59 395.326ZM145.846 384.707C148.364 381.289 151.226 378.568 154.432 376.536L153.896 375.692C150.575 377.798 147.624 380.608 145.041 384.115L145.846 384.707ZM154.432 376.536C157.642 374.5 160.974 373.205 164.428 372.645L164.268 371.658C160.669 372.242 157.211 373.589 153.896 375.692L154.432 376.536ZM164.438 372.643C167.884 372.014 171.336 372.119 174.798 372.959L175.035 371.988C171.438 371.115 167.845 371.005 164.258 371.66L164.438 372.643ZM174.807 372.961C178.254 373.732 181.501 375.235 184.551 377.478L185.144 376.673C181.99 374.354 178.617 372.789 175.026 371.986L174.807 372.961Z" fill="black"/>
<path d="M200.821 344.035L223.863 339.176L217.463 357.992L200.132 360.036L215.048 365.093L209.253 382.134L171.607 369.371L177.403 352.33L191.609 357.146L179.456 346.294L185.735 327.833L200.821 344.035Z" fill="#F8DE1E"/>
<path d="M200.821 344.035L200.455 344.375L200.647 344.582L200.924 344.524L200.821 344.035ZM223.863 339.176L224.336 339.336L224.619 338.505L223.76 338.687L223.863 339.176ZM217.463 357.992L217.522 358.489L217.835 358.452L217.937 358.153L217.463 357.992ZM200.132 360.036L200.074 359.539L199.971 360.509L200.132 360.036ZM215.048 365.093L215.522 365.253L215.683 364.78L215.209 364.619L215.048 365.093ZM209.253 382.134L209.092 382.608L209.565 382.768L209.726 382.295L209.253 382.134ZM171.607 369.371L171.134 369.211L170.973 369.684L171.446 369.844L171.607 369.371ZM177.403 352.33L177.564 351.856L177.091 351.696L176.93 352.169L177.403 352.33ZM191.609 357.146L191.448 357.619L191.942 356.773L191.609 357.146ZM179.456 346.294L178.982 346.134L178.876 346.447L179.122 346.667L179.456 346.294ZM185.735 327.833L186.101 327.492L185.531 326.88L185.261 327.672L185.735 327.833ZM200.924 344.524L223.966 339.665L223.76 338.687L200.718 343.546L200.924 344.524ZM223.389 339.015L216.99 357.832L217.937 358.153L224.336 339.336L223.389 339.015ZM217.405 357.496L200.074 359.539L200.191 360.532L217.522 358.489L217.405 357.496ZM199.971 360.509L214.887 365.566L215.209 364.619L200.293 359.562L199.971 360.509ZM214.575 364.932L208.779 381.974L209.726 382.295L215.522 365.253L214.575 364.932ZM209.414 381.661L171.768 368.898L171.446 369.844L209.092 382.608L209.414 381.661ZM172.081 369.532L177.877 352.49L176.93 352.169L171.134 369.211L172.081 369.532ZM177.242 352.803L191.448 357.619L191.77 356.673L177.564 351.856L177.242 352.803ZM191.942 356.773L179.789 345.921L179.122 346.667L191.276 357.519L191.942 356.773ZM179.929 346.455L186.208 327.993L185.261 327.672L178.982 346.134L179.929 346.455ZM185.368 328.173L200.455 344.375L201.187 343.694L186.101 327.492L185.368 328.173Z" fill="black"/>
<path d="M210.227 288.083C213.601 288.498 216.524 289.31 218.994 290.52C221.47 291.681 223.513 293.091 225.121 294.749C226.68 296.402 227.815 298.229 228.525 300.23C229.185 302.226 229.389 304.241 229.137 306.275C228.904 308.161 228.407 309.737 227.646 311.004C226.941 312.227 226.188 313.217 225.389 313.975C224.423 314.864 223.382 315.542 222.266 316.01L245.342 318.845L243.134 336.709L185.07 329.575L187.095 313.2L191.746 312.26C190.827 311.542 190.007 310.635 189.286 309.539C188.695 308.61 188.182 307.464 187.746 306.101C187.316 304.688 187.218 303.039 187.451 301.153C187.702 299.119 188.416 297.216 189.592 295.447C190.719 293.671 192.264 292.173 194.229 290.953C196.144 289.728 198.468 288.855 201.203 288.334C203.894 287.758 206.902 287.675 210.227 288.083ZM207.926 306.691C206.04 306.46 204.602 306.686 203.61 307.37C202.569 308.048 201.978 308.958 201.837 310.099C201.696 311.241 202.048 312.266 202.892 313.176C203.687 314.08 205.028 314.647 206.914 314.879C208.8 315.111 210.263 314.888 211.304 314.209C212.296 313.525 212.862 312.613 213.003 311.471C213.144 310.33 212.817 309.307 212.022 308.404C211.177 307.494 209.812 306.923 207.926 306.691Z" fill="#F8DE1E"/>
<path d="M218.994 290.52L218.774 290.969L218.781 290.973L218.994 290.52ZM225.121 294.749L225.485 294.406L225.48 294.401L225.121 294.749ZM228.525 300.23L228.999 300.073L228.996 300.063L228.525 300.23ZM227.646 311.004L227.217 310.746L227.213 310.754L227.646 311.004ZM225.389 313.975L225.728 314.343L225.733 314.338L225.389 313.975ZM222.266 316.01L222.073 315.549L220.336 316.276L222.205 316.506L222.266 316.01ZM245.342 318.845L245.839 318.906L245.9 318.41L245.404 318.349L245.342 318.845ZM243.134 336.709L243.072 337.205L243.569 337.266L243.63 336.77L243.134 336.709ZM185.07 329.575L184.574 329.514L184.513 330.01L185.009 330.071L185.07 329.575ZM187.095 313.2L186.996 312.709L186.643 312.781L186.599 313.139L187.095 313.2ZM191.746 312.26L191.844 312.75L192.91 312.534L192.053 311.866L191.746 312.26ZM189.286 309.539L188.864 309.808L188.868 309.814L189.286 309.539ZM187.746 306.101L187.268 306.247L187.27 306.254L187.746 306.101ZM189.592 295.447L190.009 295.723L190.015 295.714L189.592 295.447ZM194.229 290.953L194.492 291.378L194.498 291.374L194.229 290.953ZM201.203 288.334L201.296 288.826L201.307 288.823L201.203 288.334ZM203.61 307.37L203.883 307.789L203.894 307.782L203.61 307.37ZM202.892 313.176L203.268 312.845L203.259 312.836L202.892 313.176ZM211.304 314.209L211.577 314.628L211.588 314.621L211.304 314.209ZM212.022 308.404L212.398 308.073L212.389 308.063L212.022 308.404ZM210.165 288.579C213.497 288.989 216.364 289.789 218.774 290.969L219.214 290.071C216.684 288.832 213.705 288.007 210.288 287.587L210.165 288.579ZM218.781 290.973C221.213 292.113 223.203 293.49 224.762 295.097L225.48 294.401C223.823 292.692 221.728 291.249 219.206 290.068L218.781 290.973ZM224.757 295.092C226.272 296.698 227.368 298.466 228.053 300.398L228.996 300.063C228.261 297.991 227.088 296.105 225.485 294.406L224.757 295.092ZM228.05 300.388C228.687 302.315 228.883 304.255 228.641 306.214L229.634 306.336C229.895 304.226 229.682 302.137 228.999 300.073L228.05 300.388ZM228.641 306.214C228.414 308.049 227.934 309.554 227.217 310.746L228.075 311.261C228.881 309.92 229.394 308.272 229.634 306.336L228.641 306.214ZM227.213 310.754C226.525 311.946 225.801 312.896 225.045 313.613L225.733 314.338C226.576 313.539 227.356 312.507 228.079 311.253L227.213 310.754ZM225.051 313.608C224.124 314.46 223.131 315.106 222.073 315.549L222.459 316.471C223.633 315.979 224.722 315.268 225.728 314.343L225.051 313.608ZM222.205 316.506L245.281 319.341L245.404 318.349L222.327 315.514L222.205 316.506ZM244.846 318.784L242.638 336.648L243.63 336.77L245.839 318.906L244.846 318.784ZM243.195 336.213L185.132 329.079L185.009 330.071L243.072 337.205L243.195 336.213ZM185.567 329.636L187.591 313.261L186.599 313.139L184.574 329.514L185.567 329.636ZM187.194 313.69L191.844 312.75L191.647 311.77L186.996 312.709L187.194 313.69ZM192.053 311.866C191.182 311.186 190.398 310.321 189.704 309.264L188.868 309.814C189.615 310.95 190.471 311.899 191.438 312.654L192.053 311.866ZM189.708 309.271C189.146 308.387 188.649 307.282 188.222 305.948L187.27 306.254C187.715 307.646 188.245 308.834 188.864 309.808L189.708 309.271ZM188.224 305.955C187.82 304.625 187.72 303.049 187.947 301.214L186.955 301.092C186.715 303.028 186.812 304.751 187.268 306.247L188.224 305.955ZM187.947 301.214C188.189 299.259 188.874 297.431 190.009 295.723L189.176 295.17C187.958 297.002 187.216 298.978 186.955 301.092L187.947 301.214ZM190.015 295.714C191.097 294.008 192.585 292.562 194.492 291.378L193.965 290.529C191.943 291.784 190.341 293.333 189.17 295.179L190.015 295.714ZM194.498 291.374C196.349 290.19 198.61 289.337 201.296 288.826L201.11 287.843C198.326 288.373 195.938 289.266 193.959 290.532L194.498 291.374ZM201.307 288.823C203.933 288.261 206.884 288.176 210.165 288.579L210.288 287.587C206.919 287.173 203.854 287.256 201.098 287.846L201.307 288.823ZM207.987 306.195C206.047 305.957 204.463 306.174 203.326 306.959L203.894 307.782C204.74 307.197 206.034 306.963 207.865 307.188L207.987 306.195ZM203.337 306.951C202.184 307.703 201.501 308.738 201.341 310.038L202.333 310.16C202.455 309.178 202.954 308.394 203.883 307.789L203.337 306.951ZM201.341 310.038C201.18 311.339 201.59 312.508 202.526 313.516L203.259 312.836C202.505 312.024 202.212 311.142 202.333 310.16L201.341 310.038ZM202.517 313.506C203.428 314.542 204.912 315.137 206.852 315.375L206.975 314.383C205.144 314.158 203.947 313.617 203.268 312.846L202.517 313.506ZM206.852 315.375C208.796 315.614 210.396 315.397 211.577 314.628L211.031 313.791C210.13 314.378 208.803 314.607 206.975 314.383L206.852 315.375ZM211.588 314.621C212.691 313.86 213.34 312.823 213.499 311.532L212.507 311.41C212.384 312.402 211.9 313.191 211.02 313.798L211.588 314.621ZM213.499 311.532C213.659 310.242 213.282 309.078 212.397 308.073L211.646 308.734C212.352 309.536 212.629 310.418 212.507 311.41L213.499 311.532ZM212.389 308.063C211.431 307.032 209.931 306.434 207.987 306.195L207.865 307.188C209.693 307.412 210.924 307.956 211.655 308.744L212.389 308.063Z" fill="black"/>
<path d="M229.075 272.803L190.409 288.856L189.019 270.157L209.71 265.226L188.519 263.426L187.129 244.727L230.816 255.751C234.292 256.644 237.248 257.627 239.684 258.698C242.17 259.766 244.218 261.017 245.829 262.451C247.436 263.835 248.632 265.425 249.418 267.221C250.253 269.014 250.757 271.082 250.931 273.426C251.028 274.722 250.971 275.98 250.761 277.199C250.547 278.368 250.274 279.416 249.941 280.344C249.571 281.424 249.144 282.434 248.662 283.373L235.268 280.237C235.399 279.977 235.505 279.718 235.587 279.461C235.799 278.944 235.877 278.312 235.822 277.564C235.751 276.616 235.366 275.818 234.666 275.168C233.962 274.469 233.124 273.98 232.15 273.702L229.075 272.803Z" fill="#F8DE1E"/>
<path d="M229.075 272.803L229.216 272.323L229.047 272.274L228.884 272.342L229.075 272.803ZM190.409 288.856L189.91 288.893L189.961 289.583L190.6 289.317L190.409 288.856ZM189.019 270.157L188.903 269.671L188.489 269.769L188.52 270.194L189.019 270.157ZM209.71 265.226L209.826 265.712L209.753 264.728L209.71 265.226ZM188.519 263.426L188.02 263.463L188.052 263.888L188.476 263.924L188.519 263.426ZM187.129 244.727L187.252 244.242L186.579 244.073L186.631 244.764L187.129 244.727ZM230.816 255.751L230.941 255.267L230.939 255.266L230.816 255.751ZM239.684 258.698L239.483 259.156L239.487 259.158L239.684 258.698ZM245.829 262.451L245.497 262.824L245.503 262.829L245.829 262.451ZM249.418 267.221L248.959 267.422L248.964 267.433L249.418 267.221ZM250.761 277.199L251.252 277.289L251.253 277.284L250.761 277.199ZM249.941 280.344L249.471 280.175L249.469 280.182L249.941 280.344ZM248.662 283.373L248.548 283.859L248.929 283.948L249.107 283.601L248.662 283.373ZM235.268 280.237L234.822 280.013L234.536 280.58L235.154 280.724L235.268 280.237ZM235.587 279.461L235.124 279.272L235.116 279.291L235.11 279.311L235.587 279.461ZM234.666 275.168L234.313 275.523L234.319 275.529L234.326 275.535L234.666 275.168ZM232.15 273.702L232.01 274.182L232.013 274.182L232.15 273.702ZM228.884 272.342L190.217 288.394L190.6 289.317L229.267 273.265L228.884 272.342ZM190.907 288.818L189.518 270.12L188.52 270.194L189.91 288.893L190.907 288.818ZM189.135 270.643L209.826 265.712L209.595 264.739L188.903 269.671L189.135 270.643ZM209.753 264.728L188.561 262.927L188.476 263.924L209.668 265.724L209.753 264.728ZM189.017 263.388L187.628 244.69L186.631 244.764L188.02 263.463L189.017 263.388ZM187.007 245.212L230.694 256.236L230.939 255.266L187.252 244.242L187.007 245.212ZM230.692 256.235C234.15 257.124 237.078 258.098 239.483 259.156L239.886 258.24C237.418 257.155 234.435 256.165 230.941 255.267L230.692 256.235ZM239.487 259.158C241.935 260.209 243.935 261.434 245.497 262.824L246.162 262.077C244.502 260.6 242.405 259.322 239.882 258.239L239.487 259.158ZM245.503 262.829C247.058 264.169 248.206 265.699 248.959 267.422L249.876 267.021C249.058 265.15 247.814 263.5 246.155 262.072L245.503 262.829ZM248.964 267.433C249.77 269.161 250.262 271.169 250.433 273.463L251.43 273.388C251.252 270.996 250.736 268.867 249.871 267.01L248.964 267.433ZM250.433 273.463C250.526 274.721 250.471 275.937 250.268 277.114L251.253 277.284C251.471 276.022 251.529 274.724 251.43 273.388L250.433 273.463ZM250.269 277.109C250.059 278.257 249.792 279.278 249.471 280.175L250.412 280.512C250.755 279.555 251.035 278.479 251.252 277.289L250.269 277.109ZM249.469 280.182C249.105 281.241 248.688 282.229 248.218 283.144L249.107 283.601C249.601 282.639 250.036 281.607 250.414 280.506L249.469 280.182ZM248.777 282.886L235.382 279.75L235.154 280.724L248.548 283.859L248.777 282.886ZM235.715 280.462C235.857 280.18 235.973 279.896 236.063 279.612L235.11 279.311C235.037 279.54 234.942 279.774 234.822 280.013L235.715 280.462ZM236.049 279.651C236.299 279.042 236.38 278.326 236.32 277.526L235.323 277.601C235.375 278.297 235.299 278.847 235.124 279.272L236.049 279.651ZM236.32 277.526C236.24 276.452 235.798 275.536 235.006 274.802L234.326 275.535C234.934 276.099 235.262 276.78 235.323 277.601L236.32 277.526ZM235.018 274.813C234.254 274.053 233.341 273.522 232.288 273.221L232.013 274.182C232.907 274.438 233.671 274.884 234.313 275.523L235.018 274.813ZM232.291 273.222L229.216 272.323L228.935 273.283L232.01 274.182L232.291 273.222Z" fill="black"/>
<path d="M178.163 213.862L193.382 209.808L197.242 224.303L220.433 218.126L225.065 235.52L186.654 245.751L178.163 213.862Z" fill="#F8DE1E"/>
<path d="M178.163 213.862L178.034 213.379L177.551 213.507L177.68 213.991L178.163 213.862ZM193.382 209.808L193.865 209.679L193.737 209.196L193.253 209.325L193.382 209.808ZM197.242 224.303L196.758 224.432L196.887 224.915L197.37 224.786L197.242 224.303ZM220.433 218.126L220.916 217.997L220.788 217.514L220.304 217.643L220.433 218.126ZM225.065 235.52L225.193 236.003L225.676 235.874L225.548 235.391L225.065 235.52ZM186.654 245.751L186.171 245.88L186.299 246.363L186.782 246.234L186.654 245.751ZM178.291 214.345L193.511 210.291L193.253 209.325L178.034 213.379L178.291 214.345ZM192.899 209.937L196.758 224.432L197.725 224.174L193.865 209.679L192.899 209.937ZM197.37 224.786L220.562 218.609L220.304 217.643L197.113 223.82L197.37 224.786ZM219.95 218.255L224.581 235.648L225.548 235.391L220.916 217.997L219.95 218.255ZM224.936 235.037L186.525 245.268L186.782 246.234L225.193 236.003L224.936 235.037ZM187.137 245.622L178.646 213.733L177.68 213.991L186.171 245.88L187.137 245.622Z" fill="black"/>
<path d="M160.762 179.546L196.206 161.554L204.359 177.601L182.29 188.804L183.649 191.479C187.929 189.306 191.721 187.83 195.026 187.049C198.287 186.291 201.159 186.095 203.644 186.46C206.129 186.824 208.237 187.717 209.968 189.137C211.676 190.513 213.085 192.293 214.195 194.477C214.534 195.146 214.841 195.859 215.114 196.618C215.387 197.376 215.604 198.079 215.765 198.727C215.949 199.531 216.11 200.29 216.249 201.004L204.88 206.776L204.2 205.438C203.77 204.591 203.174 203.969 202.411 203.571C201.625 203.129 200.317 203.092 198.485 203.461C196.586 203.808 193.998 204.674 190.719 206.058C187.373 207.42 182.936 209.504 177.407 212.31L160.762 179.546Z" fill="#F8DE1E"/>
<path d="M160.762 179.546L160.535 179.1L160.089 179.327L160.316 179.772L160.762 179.546ZM196.206 161.554L196.652 161.327L196.426 160.882L195.98 161.108L196.206 161.554ZM204.359 177.601L204.586 178.047L205.032 177.821L204.805 177.375L204.359 177.601ZM182.29 188.804L182.063 188.358L181.618 188.585L181.844 189.031L182.29 188.804ZM183.649 191.479L183.203 191.705L183.429 192.151L183.875 191.925L183.649 191.479ZM195.026 187.049L194.913 186.562L194.911 186.563L195.026 187.049ZM203.644 186.46L203.571 186.954L203.644 186.46ZM209.968 189.137L209.65 189.524L209.654 189.527L209.968 189.137ZM215.114 196.618L214.644 196.787L215.114 196.618ZM215.765 198.727L216.252 198.615L216.25 198.607L215.765 198.727ZM216.249 201.004L216.475 201.45L216.812 201.279L216.74 200.909L216.249 201.004ZM204.88 206.776L204.434 207.002L204.66 207.448L205.106 207.221L204.88 206.776ZM202.411 203.571L202.165 204.007L202.172 204.011L202.179 204.014L202.411 203.571ZM198.485 203.461L198.575 203.953L198.584 203.951L198.485 203.461ZM190.719 206.058L190.907 206.521L190.913 206.518L190.719 206.058ZM177.407 212.31L176.961 212.537L177.188 212.982L177.634 212.756L177.407 212.31ZM160.988 179.992L196.433 161.999L195.98 161.108L160.535 179.1L160.988 179.992ZM195.761 161.78L203.913 177.828L204.805 177.375L196.652 161.327L195.761 161.78ZM204.133 177.156L182.063 188.358L182.516 189.25L204.586 178.047L204.133 177.156ZM181.844 189.031L183.203 191.705L184.095 191.253L182.736 188.578L181.844 189.031ZM183.875 191.925C188.133 189.763 191.887 188.304 195.141 187.536L194.911 186.563C191.555 187.355 187.724 188.849 183.422 191.033L183.875 191.925ZM195.14 187.536C198.358 186.788 201.165 186.601 203.571 186.954L203.716 185.965C201.153 185.589 198.215 185.795 194.913 186.562L195.14 187.536ZM203.571 186.954C205.977 187.308 207.998 188.168 209.65 189.524L210.285 188.751C208.475 187.266 206.28 186.341 203.716 185.965L203.571 186.954ZM209.654 189.527C211.301 190.853 212.667 192.575 213.749 194.704L214.641 194.251C213.503 192.011 212.051 190.173 210.281 188.748L209.654 189.527ZM213.749 194.704C214.079 195.352 214.377 196.047 214.644 196.787L215.585 196.449C215.305 195.672 214.99 194.939 214.641 194.251L213.749 194.704ZM214.644 196.787C214.912 197.533 215.124 198.219 215.279 198.847L216.25 198.607C216.085 197.94 215.862 197.22 215.585 196.449L214.644 196.787ZM215.277 198.838C215.46 199.637 215.62 200.391 215.758 201.1L216.74 200.909C216.6 200.189 216.437 199.424 216.252 198.615L215.277 198.838ZM216.022 200.559L204.653 206.33L205.106 207.221L216.475 201.45L216.022 200.559ZM205.326 206.549L204.646 205.212L203.755 205.665L204.434 207.002L205.326 206.549ZM204.646 205.212C204.174 204.282 203.507 203.579 202.642 203.128L202.179 204.014C202.84 204.359 203.366 204.9 203.755 205.665L204.646 205.212ZM202.656 203.136C201.7 202.597 200.23 202.6 198.386 202.971L198.584 203.951C200.403 203.585 201.55 203.66 202.165 204.007L202.656 203.136ZM198.395 202.969C196.442 203.326 193.813 204.209 190.524 205.597L190.913 206.518C194.182 205.139 196.73 204.29 198.575 203.953L198.395 202.969ZM190.53 205.595C187.165 206.964 182.714 209.056 177.181 211.864L177.634 212.756C183.157 209.952 187.58 207.875 190.907 206.521L190.53 205.595ZM177.853 212.084L161.207 179.32L160.316 179.772L176.961 212.537L177.853 212.084Z" fill="black"/>
<path d="M176.373 166.944C174.202 168.867 171.797 170.262 169.159 171.13C166.486 171.96 163.776 172.257 161.026 172.021C158.277 171.784 155.561 170.983 152.88 169.618C150.198 168.253 147.729 166.298 145.473 163.755C143.25 161.249 141.621 158.584 140.587 155.76C139.519 152.898 139.033 150.09 139.128 147.334C139.223 144.578 139.86 141.943 141.039 139.429C142.185 136.878 143.843 134.641 146.014 132.719C148.185 130.796 150.607 129.419 153.279 128.589C155.917 127.721 158.612 127.405 161.361 127.642C164.111 127.878 166.843 128.698 169.557 130.101C172.239 131.466 174.691 133.402 176.914 135.908C179.17 138.451 180.816 141.135 181.85 143.959C182.885 146.783 183.355 149.573 183.26 152.329C183.164 155.085 182.544 157.738 181.398 160.289C180.219 162.803 178.544 165.021 176.373 166.944ZM157.959 146.184C156.686 147.311 156.007 148.581 155.922 149.992C155.767 151.399 156.12 152.588 156.983 153.561C157.845 154.533 159.002 155.046 160.451 155.097C161.83 155.145 163.156 154.605 164.429 153.478C165.701 152.351 166.415 151.084 166.571 149.677C166.656 148.266 166.267 147.074 165.405 146.102C164.542 145.129 163.421 144.619 162.042 144.572C160.592 144.52 159.231 145.057 157.959 146.184Z" fill="#F8DE1E"/>
<path d="M169.159 171.13L169.307 171.607L169.315 171.605L169.159 171.13ZM152.88 169.618L153.107 169.173L152.88 169.618ZM140.587 155.76L141.056 155.588L141.055 155.585L140.587 155.76ZM139.128 147.334L139.628 147.351L139.128 147.334ZM141.039 139.429L141.492 139.641L141.495 139.634L141.039 139.429ZM153.279 128.589L153.427 129.066L153.435 129.064L153.279 128.589ZM161.361 127.642L161.318 128.14L161.361 127.642ZM169.557 130.101L169.328 130.545L169.33 130.546L169.557 130.101ZM183.26 152.329L183.759 152.346L183.26 152.329ZM181.398 160.289L181.851 160.502L181.854 160.494L181.398 160.289ZM155.922 149.992L156.419 150.047L156.421 150.034L156.422 150.022L155.922 149.992ZM160.451 155.097L160.433 155.597L160.434 155.597L160.451 155.097ZM166.571 149.677L167.068 149.732L167.07 149.72L167.07 149.707L166.571 149.677ZM162.042 144.572L162.024 145.071L162.025 145.071L162.042 144.572ZM176.041 166.57C173.919 168.45 171.573 169.81 169.002 170.655L169.315 171.605C172.021 170.715 174.485 169.284 176.705 167.318L176.041 166.57ZM169.01 170.653C166.399 171.464 163.753 171.754 161.069 171.523L160.983 172.519C163.798 172.761 166.574 172.457 169.307 171.607L169.01 170.653ZM161.069 171.523C158.389 171.292 155.736 170.512 153.107 169.173L152.653 170.063C155.386 171.455 158.164 172.276 160.983 172.519L161.069 171.523ZM153.107 169.173C150.488 167.839 148.067 165.926 145.847 163.423L145.099 164.086C147.391 166.671 149.909 168.666 152.653 170.063L153.107 169.173ZM145.847 163.423C143.661 160.959 142.067 158.347 141.056 155.588L140.117 155.931C141.175 158.82 142.839 161.539 145.099 164.086L145.847 163.423ZM141.055 155.585C140.008 152.778 139.535 150.035 139.628 147.351L138.628 147.316C138.53 150.144 139.03 153.018 140.118 155.934L141.055 155.585ZM139.628 147.351C139.72 144.663 140.341 142.094 141.492 139.641L140.586 139.217C139.379 141.791 138.725 144.492 138.628 147.316L139.628 147.351ZM141.495 139.634C142.611 137.15 144.226 134.97 146.346 133.093L145.682 132.345C143.46 134.313 141.759 136.607 140.583 139.225L141.495 139.634ZM146.346 133.093C148.466 131.215 150.825 129.875 153.427 129.066L153.13 128.112C150.388 128.964 147.904 130.377 145.682 132.345L146.346 133.093ZM153.435 129.064C156.01 128.217 158.637 127.909 161.318 128.14L161.404 127.144C158.587 126.902 155.825 127.225 153.122 128.114L153.435 129.064ZM161.318 128.14C163.996 128.37 166.665 129.169 169.328 130.545L169.787 129.657C167.021 128.227 164.225 127.386 161.404 127.144L161.318 128.14ZM169.33 130.546C171.95 131.88 174.354 133.775 176.54 136.239L177.289 135.576C175.029 133.029 172.528 131.052 169.785 129.655L169.33 130.546ZM176.54 136.239C178.76 138.742 180.37 141.373 181.381 144.131L182.32 143.787C181.261 140.897 179.581 138.161 177.289 135.576L176.54 136.239ZM181.381 144.131C182.395 146.9 182.852 149.626 182.76 152.312L183.759 152.346C183.857 149.52 183.375 146.666 182.32 143.787L181.381 144.131ZM182.76 152.312C182.667 155.002 182.061 157.592 180.942 160.085L181.854 160.494C183.026 157.885 183.662 155.168 183.759 152.346L182.76 152.312ZM180.945 160.077C179.796 162.527 178.164 164.69 176.041 166.57L176.705 167.318C178.925 165.352 180.642 163.08 181.851 160.502L180.945 160.077ZM157.627 145.81C156.276 147.006 155.518 148.392 155.423 149.962L156.422 150.022C156.497 148.769 157.096 147.617 158.29 146.558L157.627 145.81ZM155.425 149.937C155.255 151.47 155.643 152.804 156.609 153.892L157.357 153.229C156.597 152.373 156.278 151.327 156.419 150.047L155.425 149.937ZM156.609 153.892C157.573 154.98 158.864 155.541 160.433 155.597L160.469 154.598C159.139 154.55 158.118 154.087 157.357 153.229L156.609 153.892ZM160.434 155.597C161.969 155.65 163.415 155.044 164.76 153.852L164.097 153.104C162.897 154.167 161.691 154.64 160.468 154.598L160.434 155.597ZM164.76 153.852C166.106 152.66 166.896 151.286 167.068 149.732L166.074 149.622C165.934 150.882 165.296 152.042 164.097 153.104L164.76 153.852ZM167.07 149.707C167.163 148.177 166.738 146.851 165.779 145.77L165.03 146.433C165.797 147.297 166.15 148.356 166.072 149.647L167.07 149.707ZM165.779 145.77C164.819 144.688 163.566 144.124 162.059 144.072L162.025 145.071C163.276 145.114 164.265 145.57 165.03 146.433L165.779 145.77ZM162.06 144.072C160.46 144.015 158.978 144.614 157.627 145.81L158.29 146.558C159.485 145.501 160.725 145.024 162.024 145.071L162.06 144.072Z" fill="black"/>
<path d="M128.183 120.447C129.166 119.06 129.532 117.635 129.282 116.172C129.003 114.749 128.087 113.49 126.536 112.393C125.76 111.844 124.959 111.462 124.133 111.244C123.265 110.999 122.471 110.865 121.75 110.845C120.918 110.808 120.098 110.841 119.29 110.943L120.105 96.8221C121.848 96.5239 123.653 96.484 125.521 96.7023C127.167 96.8867 129.036 97.32 131.126 98.0021C133.217 98.6842 135.364 99.8047 137.569 101.364C140.181 103.211 142.272 105.363 143.84 107.82C145.409 110.276 146.461 112.857 146.995 115.562C147.489 118.238 147.447 120.934 146.871 123.649C146.295 126.365 145.169 128.906 143.492 131.272C141.815 133.638 139.791 135.544 137.418 136.99C135.046 138.435 132.514 139.37 129.824 139.795C127.092 140.19 124.306 140.057 121.466 139.396C118.625 138.735 115.899 137.48 113.286 135.633C111.081 134.074 109.324 132.402 108.014 130.619C106.675 128.876 105.645 127.26 104.924 125.77C104.097 124.083 103.52 122.389 103.193 120.688L116.255 115.227C116.427 116.022 116.669 116.806 116.98 117.577C117.239 118.25 117.628 118.954 118.149 119.689C118.628 120.396 119.256 121.024 120.032 121.572C121.583 122.669 123.091 123.092 124.555 122.842C125.991 122.632 127.2 121.834 128.183 120.447Z" fill="#F8DE1E"/>
<path d="M129.282 116.172L129.775 116.087L129.773 116.075L129.282 116.172ZM124.133 111.244L123.996 111.725L124.005 111.728L124.133 111.244ZM121.75 110.845L121.727 111.345L121.736 111.345L121.75 110.845ZM119.29 110.943L118.791 110.915L118.756 111.515L119.353 111.439L119.29 110.943ZM120.105 96.8221L120.02 96.3295L119.628 96.3966L119.605 96.7936L120.105 96.8221ZM125.521 96.7023L125.463 97.1987L125.465 97.199L125.521 96.7023ZM131.126 98.0021L131.282 97.5271L131.126 98.0021ZM143.84 107.82L143.419 108.088L143.84 107.82ZM146.995 115.562L147.487 115.471L147.486 115.465L146.995 115.562ZM146.871 123.649L147.361 123.753L146.871 123.649ZM129.824 139.795L129.895 140.289L129.902 140.288L129.824 139.795ZM121.466 139.396L121.58 138.909L121.466 139.396ZM108.014 130.619L108.418 130.323L108.411 130.314L108.014 130.619ZM104.924 125.77L105.374 125.552L105.373 125.55L104.924 125.77ZM103.193 120.688L103 120.227L102.626 120.384L102.702 120.782L103.193 120.688ZM116.255 115.227L116.744 115.121L116.617 114.534L116.062 114.766L116.255 115.227ZM116.98 117.577L117.447 117.398L117.444 117.39L116.98 117.577ZM118.149 119.689L118.563 119.409L118.557 119.401L118.149 119.689ZM124.555 122.842L124.483 122.347L124.471 122.349L124.555 122.842ZM128.591 120.735C129.639 119.257 130.051 117.7 129.775 116.087L128.789 116.256C129.013 117.569 128.693 118.862 127.775 120.158L128.591 120.735ZM129.773 116.075C129.462 114.492 128.448 113.132 126.825 111.985L126.247 112.801C127.727 113.847 128.543 115.007 128.791 116.268L129.773 116.075ZM126.825 111.985C126.006 111.406 125.151 110.995 124.26 110.761L124.005 111.728C124.768 111.928 125.515 112.283 126.247 112.801L126.825 111.985ZM124.269 110.764C123.371 110.509 122.535 110.367 121.764 110.346L121.736 111.345C122.406 111.364 123.159 111.488 123.996 111.725L124.269 110.764ZM121.772 110.346C120.913 110.308 120.064 110.342 119.228 110.448L119.353 111.439C120.132 111.341 120.923 111.309 121.727 111.345L121.772 110.346ZM119.79 110.972L120.604 96.8507L119.605 96.7936L118.791 110.915L119.79 110.972ZM120.189 97.3147C121.882 97.0251 123.639 96.9856 125.463 97.1987L125.579 96.2059C123.667 95.9824 121.814 96.0228 120.02 96.3295L120.189 97.3147ZM125.465 97.199C127.069 97.3786 128.903 97.8025 130.971 98.4772L131.282 97.5271C129.169 96.8376 127.266 96.3949 125.577 96.2057L125.465 97.199ZM130.971 98.4772C133.004 99.1407 135.107 100.235 137.279 101.772L137.858 100.956C135.621 99.3742 133.429 98.2278 131.282 97.5271L130.971 98.4772ZM137.279 101.772C139.845 103.585 141.888 105.692 143.419 108.088L144.262 107.551C142.656 105.035 140.518 102.837 137.858 100.956L137.279 101.772ZM143.419 108.088C144.956 110.495 145.983 113.018 146.504 115.659L147.486 115.465C146.939 112.695 145.862 110.057 144.262 107.551L143.419 108.088ZM146.503 115.652C146.985 118.263 146.945 120.893 146.382 123.546L147.361 123.753C147.95 120.975 147.993 118.213 147.487 115.471L146.503 115.652ZM146.382 123.546C145.82 126.192 144.723 128.67 143.084 130.984L143.9 131.561C145.615 129.142 146.77 126.538 147.361 123.753L146.382 123.546ZM143.084 130.984C141.445 133.297 139.47 135.155 137.158 136.563L137.679 137.416C140.112 135.934 142.186 133.98 143.9 131.561L143.084 130.984ZM137.158 136.563C134.84 137.975 132.371 138.887 129.746 139.301L129.902 140.288C132.658 139.854 135.252 138.895 137.679 137.416L137.158 136.563ZM129.752 139.3C127.086 139.686 124.363 139.557 121.58 138.909L121.352 139.883C124.25 140.557 127.099 140.694 129.895 140.289L129.752 139.3ZM121.58 138.909C118.808 138.264 116.14 137.038 113.575 135.225L112.997 136.04C115.657 137.922 118.443 139.205 121.352 139.883L121.58 138.909ZM113.575 135.225C111.405 133.69 109.69 132.055 108.418 130.323L107.611 130.915C108.959 132.75 110.758 134.457 112.997 136.04L113.575 135.225ZM108.411 130.314C107.087 128.59 106.077 127.003 105.374 125.552L104.474 125.987C105.214 127.516 106.264 129.162 107.617 130.923L108.411 130.314ZM105.373 125.55C104.564 123.899 104.003 122.247 103.685 120.594L102.702 120.782C103.038 122.53 103.63 124.266 104.475 125.99L105.373 125.55ZM103.386 121.149L116.448 115.688L116.062 114.766L103 120.227L103.386 121.149ZM115.766 115.333C115.944 116.156 116.194 116.967 116.516 117.764L117.444 117.39C117.143 116.644 116.91 115.888 116.744 115.121L115.766 115.333ZM116.513 117.756C116.79 118.476 117.201 119.217 117.74 119.978L118.557 119.401C118.055 118.691 117.687 118.023 117.447 117.398L116.513 117.756ZM117.735 119.97C118.252 120.731 118.924 121.401 119.743 121.98L120.321 121.164C119.589 120.646 119.005 120.061 118.563 119.409L117.735 119.97ZM119.743 121.98C121.371 123.131 123.011 123.613 124.64 123.334L124.471 122.349C123.171 122.572 121.796 122.207 120.321 121.164L119.743 121.98ZM124.628 123.336C126.222 123.103 127.544 122.213 128.591 120.735L127.775 120.158C126.856 121.454 125.76 122.161 124.483 122.347L124.628 123.336Z" fill="black"/>
<path d="M69.7791 111.143L76.5759 96.9355L85.3755 101.134L95.7325 79.4839L111.978 87.2354L101.621 108.886L110.421 113.084L103.624 127.292L69.7791 111.143Z" fill="#F8DE1E"/>
<path d="M69.7791 111.143L69.3278 110.928L69.1121 111.379L69.5633 111.594L69.7791 111.143ZM76.5759 96.9355L76.7917 96.4844L76.3404 96.2691L76.1246 96.7201L76.5759 96.9355ZM85.3755 101.134L85.1597 101.585L85.611 101.801L85.8268 101.349L85.3755 101.134ZM95.7325 79.4839L95.9483 79.0329L95.497 78.8176L95.2813 79.2686L95.7325 79.4839ZM111.978 87.2354L112.429 87.4507L112.645 86.9997L112.194 86.7843L111.978 87.2354ZM101.621 108.886L101.17 108.67L100.954 109.121L101.405 109.337L101.621 108.886ZM110.421 113.084L110.872 113.3L111.088 112.849L110.636 112.633L110.421 113.084ZM103.624 127.292L103.408 127.743L103.859 127.959L104.075 127.508L103.624 127.292ZM70.2304 111.359L77.0272 97.1508L76.1246 96.7201L69.3278 110.928L70.2304 111.359ZM76.3601 97.3865L85.1597 101.585L85.5913 100.683L76.7917 96.4844L76.3601 97.3865ZM85.8268 101.349L96.1838 79.6992L95.2813 79.2686L84.9243 100.919L85.8268 101.349ZM95.5167 79.935L111.762 87.6864L112.194 86.7843L95.9483 79.0329L95.5167 79.935ZM111.527 87.0201L101.17 108.67L102.072 109.101L112.429 87.4507L111.527 87.0201ZM101.405 109.337L110.205 113.535L110.636 112.633L101.837 108.435L101.405 109.337ZM109.969 112.869L103.173 127.077L104.075 127.508L110.872 113.3L109.969 112.869ZM103.84 126.841L69.9949 110.692L69.5633 111.594L103.408 127.743L103.84 126.841Z" fill="black"/>
<path d="M52.2439 94.9713C49.9989 94.2765 48.0637 93.2589 46.4381 91.9183C44.7647 90.563 43.4595 89.0338 42.5225 87.3306C41.5376 85.6126 40.9374 83.752 40.7218 81.7487C40.4913 79.7931 40.6801 77.8365 41.288 75.8787C41.8959 73.9209 42.8802 72.1842 44.2408 70.6688C45.5866 69.201 47.2478 68.0665 49.2244 67.265C51.2009 66.4636 53.502 66.0504 56.1274 66.0255C58.7052 65.9858 61.5703 66.4538 64.7227 67.4295C67.4453 68.2721 69.8665 69.0738 71.9863 69.8345C74.1209 70.5474 75.9376 71.1882 77.4364 71.7568C79.2218 72.414 80.7609 73.0212 82.0539 73.5784L70.266 111.54L53.0707 106.219L56.2957 95.8328C55.8987 95.7622 55.454 95.677 54.9616 95.5769C54.5646 95.5064 54.1438 95.4285 53.6991 95.3432C53.2066 95.2431 52.7215 95.1191 52.2439 94.9713ZM60.4596 84.9524L62.2388 79.2223L61.1641 78.8897C60.4477 78.668 59.7765 78.7219 59.1505 79.0516C58.5098 79.429 58.0486 80.0714 57.7668 80.9787C57.4851 81.8859 57.5089 82.6522 57.8383 83.2776C58.1529 83.9507 58.6684 84.3981 59.3848 84.6198L60.4596 84.9524Z" fill="#F8DE1E"/>
<path d="M46.4381 91.9183L46.7566 91.5327L46.7532 91.5299L46.4381 91.9183ZM42.5225 87.3306L42.9608 87.0894L42.9565 87.0818L42.5225 87.3306ZM40.7218 81.7487L41.2191 81.6948L41.2185 81.6898L40.7218 81.7487ZM44.2408 70.6688L43.8722 70.3312L43.8687 70.3351L44.2408 70.6688ZM49.2244 67.265L49.0367 66.8018L49.2244 67.265ZM56.1274 66.0255L56.1318 66.5254L56.1348 66.5253L56.1274 66.0255ZM71.9863 69.8345L71.8169 70.3051L71.8274 70.3086L71.9863 69.8345ZM77.4364 71.7568L77.2586 72.2241L77.2632 72.2258L77.4364 71.7568ZM82.0539 73.5784L82.5315 73.7262L82.6648 73.2971L82.2522 73.1193L82.0539 73.5784ZM70.266 111.54L70.1178 112.018L70.5954 112.166L70.7437 111.688L70.266 111.54ZM53.0707 106.219L52.5931 106.071L52.4448 106.548L52.9224 106.696L53.0707 106.219ZM56.2957 95.8328L56.7733 95.9806L56.9413 95.4397L56.3836 95.3406L56.2957 95.8328ZM54.9616 95.5769L55.0616 95.0869L55.0494 95.0847L54.9616 95.5769ZM53.6991 95.3432L53.5991 95.8331L53.6045 95.8341L53.6991 95.3432ZM60.4596 84.9524L60.3113 85.4299L60.7889 85.5778L60.9372 85.1002L60.4596 84.9524ZM62.2388 79.2223L62.7165 79.3701L62.8648 78.8926L62.3871 78.7448L62.2388 79.2223ZM59.1505 79.0516L58.9176 78.6094L58.9071 78.615L58.8969 78.621L59.1505 79.0516ZM57.8383 83.2776L58.2915 83.0657L58.2865 83.055L58.2809 83.0445L57.8383 83.2776ZM52.3922 94.4938C50.2023 93.8161 48.3265 92.8273 46.7566 91.5327L46.1196 92.304C47.8009 93.6905 49.7956 94.737 52.0956 95.4488L52.3922 94.4938ZM46.7532 91.5299C45.1246 90.2109 43.8635 88.7302 42.9607 87.0895L42.0842 87.5717C43.0556 89.3373 44.4049 90.9152 46.123 92.3068L46.7532 91.5299ZM42.9565 87.0818C42.0066 85.4248 41.4274 83.6307 41.219 81.6948L40.2245 81.8025C40.4474 83.8733 41.0687 85.8004 42.0885 87.5793L42.9565 87.0818ZM41.2185 81.6898C40.9965 79.8066 41.1776 77.9203 41.7656 76.0265L40.8103 75.7308C40.1825 77.7527 39.9861 79.7797 40.2251 81.8075L41.2185 81.6898ZM41.7656 76.0265C42.3523 74.137 43.3008 72.4639 44.6129 71.0025L43.8687 70.3351C42.4596 71.9046 41.4395 73.7047 40.8103 75.7308L41.7656 76.0265ZM44.6094 71.0063C45.9015 69.5972 47.4994 68.5037 49.4121 67.7282L49.0367 66.8018C46.9962 67.6292 45.2717 68.8049 43.8722 70.3312L44.6094 71.0063ZM49.4121 67.7282C51.3186 66.9551 53.5551 66.5498 56.1318 66.5254L56.1231 65.5257C53.4488 65.551 51.0833 65.972 49.0367 66.8018L49.4121 67.7282ZM56.1348 66.5253C58.6474 66.4867 61.4589 66.9428 64.5745 67.907L64.871 66.952C61.6816 65.9649 58.763 65.485 56.1201 65.5257L56.1348 66.5253ZM64.5745 67.907C67.2917 68.748 69.7057 69.5473 71.8169 70.305L72.1556 69.364C70.0273 68.6002 67.5989 67.7962 64.871 66.952L64.5745 67.907ZM71.8274 70.3086C73.958 71.0202 75.768 71.6587 77.2586 72.2241L77.6142 71.2894C76.1071 70.7177 74.2837 70.0747 72.1451 69.3604L71.8274 70.3086ZM77.2632 72.2258C79.0429 72.881 80.5732 73.4848 81.8556 74.0374L82.2522 73.1193C80.9487 72.5576 79.4007 71.947 77.6095 71.2877L77.2632 72.2258ZM81.5762 73.4305L69.7884 111.392L70.7437 111.688L82.5315 73.7262L81.5762 73.4305ZM70.4143 111.063L53.219 105.741L52.9224 106.696L70.1178 112.018L70.4143 111.063ZM53.5484 106.366L56.7733 95.9806L55.818 95.6849L52.5931 106.071L53.5484 106.366ZM56.3836 95.3406C55.9915 95.271 55.5509 95.1865 55.0616 95.087L54.8615 96.0667C55.3571 96.1674 55.806 96.2535 56.2078 96.3249L56.3836 95.3406ZM55.0494 95.0847C54.655 95.0147 54.2364 94.9372 53.7937 94.8523L53.6045 95.8341C54.0511 95.9198 54.4742 95.9981 54.8737 96.069L55.0494 95.0847ZM53.7991 94.8533C53.3228 94.7565 52.8539 94.6367 52.3922 94.4938L52.0956 95.4488C52.5892 95.6016 53.0904 95.7297 53.5991 95.833L53.7991 94.8533ZM60.9372 85.1002L62.7165 79.3701L61.7612 79.0745L59.9819 84.8046L60.9372 85.1002ZM62.3871 78.7448L61.3124 78.4122L61.0159 79.3672L62.0906 79.6998L62.3871 78.7448ZM61.3124 78.4122C60.4778 78.1539 59.6686 78.2139 58.9176 78.6094L59.3834 79.4938C59.8843 79.23 60.4175 79.182 61.0159 79.3672L61.3124 78.4122ZM58.8969 78.621C58.1216 79.0777 57.5972 79.8389 57.2892 80.8308L58.2445 81.1265C58.4999 80.3039 58.898 79.7804 59.4042 79.4822L58.8969 78.621ZM57.2892 80.8308C56.9821 81.8199 56.9857 82.7322 57.3957 83.5107L58.2809 83.0445C58.0322 82.5722 57.9882 81.9519 58.2445 81.1265L57.2892 80.8308ZM57.3851 83.4894C57.7599 84.2914 58.3869 84.8344 59.2366 85.0973L59.5331 84.1423C58.9498 83.9618 58.5458 83.61 58.2915 83.0657L57.3851 83.4894ZM59.2366 85.0973L60.3113 85.4299L60.6078 84.4749L59.5331 84.1423L59.2366 85.0973Z" fill="black"/>
<path d="M146.526 787.678C145.777 786.616 144.902 785.764 143.9 785.124C142.898 784.484 141.86 784.053 140.786 783.83C139.712 783.608 138.636 783.6 137.559 783.808C136.482 784.015 135.493 784.435 134.593 785.068C133.653 785.73 132.903 786.532 132.344 787.475C131.786 788.419 131.43 789.433 131.277 790.518C131.125 791.604 131.181 792.725 131.447 793.883C131.754 795.013 132.281 796.108 133.03 797.171C133.779 798.234 134.634 799.099 135.595 799.768C136.597 800.409 137.635 800.84 138.709 801.062C139.783 801.285 140.859 801.292 141.936 801.085C143.014 800.877 144.022 800.443 144.963 799.781C145.863 799.148 146.592 798.36 147.151 797.417C147.709 796.474 148.065 795.46 148.218 794.375C148.37 793.289 148.314 792.167 148.048 791.009C147.782 789.851 147.275 788.741 146.526 787.678ZM163.703 775.597C165.921 778.744 167.402 782.104 168.146 785.676C168.902 789.179 168.936 792.7 168.25 796.239C167.576 799.709 166.17 803.051 164.032 806.267C161.893 809.482 159.066 812.327 155.549 814.801C152.032 817.274 148.397 818.975 144.646 819.902C140.895 820.828 137.251 821.038 133.713 820.531C130.187 819.955 126.88 818.735 123.793 816.872C120.718 814.939 118.071 812.399 115.854 809.252C113.636 806.106 112.149 802.781 111.393 799.278C110.649 795.705 110.614 792.184 111.288 788.715C111.975 785.176 113.387 781.798 115.525 778.583C117.663 775.367 120.491 772.523 124.008 770.049C127.525 767.575 131.159 765.875 134.91 764.948C138.661 764.021 142.3 763.846 145.826 764.422C149.364 764.929 152.67 766.149 155.745 768.082C158.832 769.945 161.485 772.45 163.703 775.597Z" fill="#F8DE1E"/>
<path d="M143.9 785.124L144.17 784.703L143.9 785.124ZM140.786 783.83L140.887 783.341L140.786 783.83ZM137.559 783.808L137.464 783.317L137.559 783.808ZM132.344 787.475L132.775 787.73L132.344 787.475ZM131.277 790.518L131.773 790.588L131.277 790.518ZM131.447 793.883L130.959 793.995L130.962 794.004L130.964 794.014L131.447 793.883ZM135.595 799.768L135.309 800.178L135.317 800.184L135.325 800.189L135.595 799.768ZM138.709 801.062L138.81 800.573L138.709 801.062ZM141.936 801.085L141.841 800.594L141.936 801.085ZM147.151 797.417L147.581 797.672L147.151 797.417ZM148.218 794.375L148.713 794.444L148.713 794.444L148.218 794.375ZM148.048 791.009L147.56 791.121L148.048 791.009ZM168.146 785.676L167.656 785.778L167.657 785.781L168.146 785.676ZM168.25 796.239L168.741 796.335L168.741 796.334L168.25 796.239ZM164.032 806.267L163.615 805.99L164.032 806.267ZM144.646 819.902L144.526 819.416L144.646 819.902ZM133.713 820.531L133.632 821.025L133.642 821.026L133.713 820.531ZM123.793 816.872L123.527 817.295L123.534 817.3L123.793 816.872ZM111.393 799.278L110.903 799.38L110.904 799.383L111.393 799.278ZM111.288 788.715L111.779 788.81L111.779 788.81L111.288 788.715ZM115.525 778.583L115.942 778.859L115.525 778.583ZM134.91 764.948L135.03 765.433L134.91 764.948ZM145.826 764.422L145.745 764.916L145.755 764.917L145.826 764.422ZM155.745 768.082L155.479 768.505L155.487 768.51L155.745 768.082ZM146.935 787.391C146.152 786.28 145.231 785.382 144.17 784.703L143.631 785.545C144.573 786.147 145.402 786.952 146.117 787.966L146.935 787.391ZM144.17 784.703C143.121 784.033 142.026 783.577 140.887 783.341L140.685 784.32C141.694 784.529 142.676 784.935 143.631 785.545L144.17 784.703ZM140.887 783.341C139.748 783.105 138.606 783.097 137.464 783.317L137.654 784.299C138.666 784.104 139.675 784.111 140.685 784.32L140.887 783.341ZM137.464 783.317C136.317 783.538 135.263 783.986 134.305 784.66L134.881 785.477C135.723 784.885 136.646 784.493 137.654 784.299L137.464 783.317ZM134.305 784.66C133.31 785.36 132.51 786.214 131.914 787.221L132.775 787.73C133.296 786.851 133.996 786.1 134.881 785.477L134.305 784.66ZM131.914 787.221C131.322 788.221 130.944 789.298 130.782 790.449L131.773 790.588C131.916 789.568 132.25 788.616 132.775 787.73L131.914 787.221ZM130.782 790.449C130.62 791.599 130.681 792.782 130.959 793.995L131.935 793.772C131.681 792.668 131.629 791.608 131.773 790.588L130.782 790.449ZM130.964 794.014C131.288 795.205 131.842 796.354 132.621 797.459L133.439 796.883C132.72 795.863 132.22 794.82 131.93 793.753L130.964 794.014ZM132.621 797.459C133.4 798.564 134.295 799.473 135.309 800.178L135.881 799.358C134.973 798.726 134.158 797.904 133.439 796.883L132.621 797.459ZM135.325 800.189C136.374 800.86 137.469 801.316 138.608 801.552L138.81 800.573C137.801 800.364 136.819 799.958 135.864 799.347L135.325 800.189ZM138.608 801.552C139.747 801.788 140.889 801.796 142.031 801.576L141.841 800.594C140.829 800.789 139.82 800.782 138.81 800.573L138.608 801.552ZM142.031 801.576C143.181 801.354 144.255 800.89 145.251 800.19L144.675 799.373C143.789 799.995 142.846 800.401 141.841 800.594L142.031 801.576ZM145.251 800.19C146.209 799.517 146.986 798.676 147.581 797.672L146.72 797.163C146.198 798.045 145.517 798.78 144.675 799.373L145.251 800.19ZM147.581 797.672C148.174 796.672 148.551 795.595 148.713 794.444L147.722 794.305C147.579 795.325 147.245 796.276 146.72 797.163L147.581 797.672ZM148.713 794.444C148.875 793.294 148.814 792.11 148.536 790.898L147.56 791.121C147.814 792.224 147.866 793.285 147.722 794.305L148.713 794.444ZM148.536 790.898C148.254 789.671 147.718 788.502 146.935 787.391L146.117 787.966C146.832 788.981 147.311 790.032 147.56 791.121L148.536 790.898ZM163.294 775.885C165.475 778.979 166.927 782.276 167.656 785.778L168.635 785.574C167.877 781.932 166.367 778.509 164.112 775.309L163.294 775.885ZM167.657 785.781C168.398 789.218 168.433 792.671 167.759 796.144L168.741 796.334C169.44 792.729 169.405 789.14 168.635 785.571L167.657 785.781ZM167.759 796.144C167.098 799.543 165.72 802.825 163.615 805.99L164.448 806.543C166.619 803.278 168.053 799.875 168.741 796.335L167.759 796.144ZM163.615 805.99C161.515 809.148 158.733 811.95 155.261 814.392L155.837 815.209C159.399 812.704 162.272 809.816 164.448 806.543L163.615 805.99ZM155.261 814.392C151.789 816.834 148.211 818.506 144.526 819.416L144.767 820.387C148.584 819.443 152.275 817.715 155.837 815.209L155.261 814.392ZM144.526 819.416C140.832 820.329 137.253 820.534 133.783 820.037L133.642 821.026C137.249 821.543 140.958 821.328 144.767 820.387L144.526 819.416ZM133.793 820.038C130.331 819.472 127.085 818.275 124.052 816.444L123.534 817.3C126.676 819.196 130.042 820.438 133.632 821.025L133.793 820.038ZM124.059 816.449C121.044 814.554 118.445 812.061 116.262 808.965L115.445 809.54C117.698 812.738 120.392 815.325 123.527 817.295L124.059 816.449ZM116.262 808.965C114.08 805.869 112.622 802.605 111.882 799.173L110.904 799.383C111.675 802.956 113.191 806.342 115.445 809.54L116.262 808.965ZM111.882 799.176C111.152 795.667 111.118 792.213 111.779 788.81L110.797 788.619C110.11 792.156 110.146 795.744 110.903 799.38L111.882 799.176ZM111.779 788.81C112.452 785.34 113.837 782.024 115.942 778.859L115.108 778.306C112.936 781.573 111.497 785.011 110.797 788.62L111.779 788.81ZM115.942 778.859C118.042 775.701 120.824 772.9 124.296 770.458L123.72 769.64C120.158 772.146 117.284 775.034 115.108 778.306L115.942 778.859ZM124.296 770.458C127.768 768.015 131.346 766.343 135.03 765.433L134.79 764.463C130.972 765.406 127.282 767.135 123.72 769.64L124.296 770.458ZM135.03 765.433C138.721 764.521 142.291 764.351 145.745 764.916L145.906 763.929C142.308 763.341 138.601 763.521 134.79 764.463L135.03 765.433ZM145.755 764.917C149.222 765.414 152.462 766.609 155.479 768.505L156.012 767.659C152.878 765.689 149.505 764.445 145.897 763.928L145.755 764.917ZM155.487 768.51C158.511 770.335 161.113 772.79 163.294 775.885L164.112 775.309C161.857 772.11 159.154 769.556 156.004 767.654L155.487 768.51Z" fill="black"/>
<path d="M189.335 749.334L212.728 752.038L200.688 767.851L183.604 764.289L196.145 773.818L185.24 788.139L153.591 764.09L164.495 749.768L176.439 758.844L168.357 744.696L180.17 729.182L189.335 749.334Z" fill="#F8DE1E"/>
<path d="M189.335 749.334L188.88 749.54L188.997 749.798L189.278 749.83L189.335 749.334ZM212.728 752.038L213.126 752.341L213.658 751.642L212.786 751.542L212.728 752.038ZM200.688 767.851L200.586 768.34L200.895 768.405L201.086 768.154L200.688 767.851ZM183.604 764.289L183.707 763.8L183.301 764.687L183.604 764.289ZM196.145 773.818L196.543 774.121L196.846 773.723L196.447 773.42L196.145 773.818ZM185.24 788.139L184.937 788.537L185.336 788.84L185.638 788.442L185.24 788.139ZM153.591 764.09L153.193 763.787L152.89 764.185L153.288 764.487L153.591 764.09ZM164.495 749.768L164.798 749.37L164.4 749.068L164.097 749.466L164.495 749.768ZM176.439 758.844L176.136 759.242L176.873 758.596L176.439 758.844ZM168.357 744.696L167.959 744.394L167.759 744.657L167.923 744.944L168.357 744.696ZM180.17 729.182L180.626 728.975L180.279 728.213L179.772 728.879L180.17 729.182ZM189.278 749.83L212.67 752.534L212.786 751.542L189.393 748.837L189.278 749.83ZM212.33 751.735L200.29 767.549L201.086 768.154L213.126 752.341L212.33 751.735ZM200.79 767.362L183.707 763.8L183.502 764.778L200.586 768.34L200.79 767.362ZM183.301 764.687L195.842 774.216L196.447 773.42L183.907 763.891L183.301 764.687ZM195.746 773.516L184.842 787.837L185.638 788.442L196.543 774.121L195.746 773.516ZM185.543 787.742L153.894 763.692L153.288 764.487L184.937 788.537L185.543 787.742ZM153.989 764.392L164.894 750.071L164.097 749.466L153.193 763.787L153.989 764.392ZM164.193 750.166L176.136 759.242L176.741 758.446L164.798 749.37L164.193 750.166ZM176.873 758.596L168.792 744.448L167.923 744.944L176.004 759.092L176.873 758.596ZM168.756 744.999L180.568 729.484L179.772 728.879L167.959 744.394L168.756 744.999ZM179.715 729.388L188.88 749.54L189.791 749.127L180.626 728.975L179.715 729.388Z" fill="black"/>
<path d="M216.009 699.259C219.078 700.723 221.591 702.421 223.55 704.353C225.53 706.239 227.019 708.224 228.018 710.307C228.972 712.369 229.468 714.462 229.506 716.585C229.499 718.687 229.053 720.662 228.169 722.512C227.35 724.226 226.378 725.563 225.254 726.523C224.197 727.459 223.169 728.159 222.171 728.625C220.973 729.161 219.77 729.474 218.564 729.563L239.548 739.575L231.784 755.815L178.986 730.623L186.103 715.736L190.811 716.321C190.167 715.349 189.677 714.229 189.342 712.961C189.076 711.892 188.953 710.643 188.973 709.211C189.013 707.735 189.443 706.14 190.263 704.426C191.147 702.576 192.428 700.999 194.105 699.694C195.736 698.367 197.677 697.437 199.927 696.904C202.132 696.349 204.614 696.259 207.372 696.634C210.107 696.941 212.986 697.816 216.009 699.259ZM207.922 716.175C206.207 715.357 204.771 715.115 203.614 715.449C202.412 715.762 201.562 716.437 201.066 717.475C200.57 718.512 200.578 719.596 201.091 720.727C201.558 721.837 202.649 722.8 204.364 723.619C206.079 724.437 207.537 724.689 208.74 724.377C209.897 724.043 210.724 723.357 211.22 722.319C211.716 721.282 211.73 720.208 211.263 719.099C210.751 717.968 209.637 716.994 207.922 716.175Z" fill="#F8DE1E"/>
<path d="M223.55 704.353L223.198 704.709L223.204 704.714L223.55 704.353ZM228.018 710.307L228.472 710.097L228.469 710.091L228.018 710.307ZM229.506 716.585L230.007 716.586L230.006 716.576L229.506 716.585ZM225.254 726.523L224.929 726.143L224.923 726.149L225.254 726.523ZM222.171 728.625L222.375 729.081L222.382 729.078L222.171 728.625ZM218.564 729.563L218.527 729.064L216.649 729.203L218.348 730.014L218.564 729.563ZM239.548 739.575L239.999 739.79L240.214 739.339L239.763 739.124L239.548 739.575ZM231.784 755.815L231.568 756.266L232.02 756.481L232.235 756.03L231.784 755.815ZM178.986 730.623L178.535 730.407L178.319 730.859L178.77 731.074L178.986 730.623ZM186.103 715.736L186.164 715.24L185.807 715.196L185.651 715.521L186.103 715.736ZM190.811 716.321L190.749 716.817L191.828 716.951L191.228 716.045L190.811 716.321ZM189.342 712.961L188.856 713.081L188.858 713.089L189.342 712.961ZM188.973 709.211L188.473 709.198L188.472 709.205L188.973 709.211ZM194.105 699.694L194.412 700.088L194.42 700.081L194.105 699.694ZM199.927 696.904L200.042 697.39L200.049 697.389L199.927 696.904ZM207.372 696.634L207.304 697.129L207.316 697.13L207.372 696.634ZM203.614 715.449L203.74 715.933L203.753 715.93L203.614 715.449ZM201.091 720.727L201.552 720.533L201.546 720.521L201.091 720.727ZM208.74 724.377L208.865 724.861L208.878 724.857L208.74 724.377ZM211.263 719.099L211.724 718.905L211.719 718.893L211.263 719.099ZM215.794 699.71C218.823 701.156 221.288 702.824 223.198 704.708L223.901 703.997C221.895 702.018 219.332 700.291 216.225 698.808L215.794 699.71ZM223.204 704.714C225.149 706.567 226.599 708.504 227.567 710.524L228.469 710.091C227.44 707.944 225.911 705.911 223.895 703.991L223.204 704.714ZM227.564 710.517C228.491 712.521 228.97 714.545 229.006 716.594L230.006 716.576C229.967 714.378 229.453 712.218 228.472 710.097L227.564 710.517ZM229.006 716.584C228.999 718.613 228.569 720.516 227.718 722.297L228.62 722.727C229.537 720.809 229.999 718.76 230.006 716.586L229.006 716.584ZM227.718 722.297C226.92 723.965 225.987 725.239 224.93 726.143L225.579 726.903C226.769 725.886 227.779 724.487 228.62 722.727L227.718 722.297ZM224.923 726.149C223.892 727.061 222.904 727.732 221.96 728.172L222.382 729.078C223.435 728.587 224.502 727.856 225.586 726.897L224.923 726.149ZM221.967 728.169C220.817 728.683 219.671 728.98 218.527 729.064L218.6 730.061C219.869 729.967 221.128 729.639 222.375 729.081L221.967 728.169ZM218.348 730.014L239.332 740.026L239.763 739.124L218.779 729.112L218.348 730.014ZM239.096 739.36L231.333 755.599L232.235 756.03L239.999 739.79L239.096 739.36ZM232 755.363L179.202 730.172L178.77 731.074L231.568 756.266L232 755.363ZM179.437 730.838L186.554 715.952L185.651 715.521L178.535 730.407L179.437 730.838ZM186.041 716.232L190.749 716.817L190.873 715.825L186.164 715.24L186.041 716.232ZM191.228 716.045C190.618 715.124 190.149 714.055 189.825 712.833L188.858 713.089C189.206 714.403 189.717 715.574 190.394 716.597L191.228 716.045ZM189.827 712.84C189.575 711.824 189.454 710.618 189.473 709.218L188.472 709.205C188.453 710.667 188.578 711.961 188.856 713.081L189.827 712.84ZM189.473 709.225C189.511 707.835 189.917 706.309 190.714 704.641L189.812 704.21C188.97 705.97 188.516 707.635 188.473 709.198L189.473 709.225ZM190.714 704.641C191.564 702.864 192.794 701.347 194.412 700.088L193.797 699.299C192.062 700.65 190.731 702.288 189.812 704.21L190.714 704.641ZM194.42 700.081C195.988 698.807 197.858 697.908 200.042 697.39L199.812 696.418C197.496 696.966 195.485 697.927 193.789 699.306L194.42 700.081ZM200.049 697.389C202.18 696.853 204.595 696.761 207.304 697.129L207.439 696.138C204.632 695.757 202.084 695.846 199.805 696.419L200.049 697.389ZM207.316 697.13C209.985 697.431 212.81 698.286 215.794 699.71L216.225 698.808C213.162 697.346 210.229 696.452 207.428 696.137L207.316 697.13ZM208.138 715.724C206.373 714.882 204.802 714.586 203.475 714.969L203.753 715.93C204.741 715.644 206.041 715.832 207.706 716.626L208.138 715.724ZM203.488 714.966C202.156 715.312 201.18 716.077 200.615 717.259L201.518 717.69C201.944 716.797 202.667 716.212 203.74 715.933L203.488 714.966ZM200.615 717.259C200.05 718.442 200.067 719.681 200.635 720.934L201.546 720.521C201.089 719.512 201.091 718.583 201.518 717.69L200.615 717.259ZM200.63 720.921C201.165 722.193 202.384 723.228 204.148 724.07L204.58 723.167C202.914 722.373 201.951 721.48 201.552 720.533L200.63 720.921ZM204.148 724.07C205.915 724.913 207.502 725.215 208.865 724.861L208.614 723.893C207.573 724.164 206.242 723.961 204.58 723.167L204.148 724.07ZM208.878 724.857C210.166 724.485 211.11 723.708 211.671 722.535L210.768 722.104C210.337 723.006 209.629 723.6 208.601 723.897L208.878 724.857ZM211.671 722.535C212.232 721.361 212.244 720.139 211.724 718.905L210.802 719.293C211.217 720.278 211.2 721.202 210.768 722.104L211.671 722.535ZM211.719 718.893C211.138 717.61 209.905 716.567 208.138 715.724L207.706 716.626C209.369 717.42 210.363 718.326 210.807 719.305L211.719 718.893Z" fill="black"/>
<path d="M238.733 690.751L196.971 693.702L201.587 675.53L222.774 677.42L203.249 668.987L207.865 650.814L245.795 675.132C248.808 677.083 251.299 678.952 253.27 680.741C255.288 682.543 256.834 684.379 257.906 686.25C258.991 688.072 259.621 689.96 259.795 691.913C260.018 693.878 259.84 695.999 259.262 698.277C258.942 699.537 258.489 700.712 257.902 701.801C257.329 702.842 256.737 703.749 256.128 704.523C255.433 705.43 254.708 706.252 253.953 706.989L242.247 699.766C242.454 699.56 242.636 699.349 242.795 699.131C243.16 698.708 243.435 698.133 243.62 697.406C243.854 696.485 243.742 695.606 243.284 694.767C242.839 693.881 242.199 693.151 241.364 692.578L238.733 690.751Z" fill="#F8DE1E"/>
<path d="M238.733 690.751L239.018 690.34L238.874 690.24L238.698 690.252L238.733 690.751ZM196.971 693.702L196.486 693.58L196.316 694.25L197.006 694.201L196.971 693.702ZM201.587 675.53L201.632 675.032L201.207 674.994L201.102 675.407L201.587 675.53ZM222.774 677.42L222.729 677.918L222.972 676.961L222.774 677.42ZM203.249 668.987L202.764 668.864L202.659 669.277L203.05 669.446L203.249 668.987ZM207.865 650.814L208.135 650.394L207.551 650.019L207.38 650.692L207.865 650.814ZM245.795 675.132L246.067 674.713L246.065 674.711L245.795 675.132ZM253.27 680.741L252.933 681.111L252.937 681.114L253.27 680.741ZM257.906 686.25L257.472 686.499L257.476 686.506L257.906 686.25ZM259.795 691.913L259.297 691.957L259.298 691.969L259.795 691.913ZM257.902 701.801L258.34 702.042L258.343 702.038L257.902 701.801ZM256.128 704.523L255.735 704.214L255.731 704.219L256.128 704.523ZM253.953 706.989L253.691 707.415L254.023 707.62L254.303 707.347L253.953 706.989ZM242.247 699.766L241.894 699.411L241.444 699.858L241.984 700.191L242.247 699.766ZM242.795 699.131L242.416 698.804L242.403 698.82L242.39 698.837L242.795 699.131ZM243.284 694.767L242.837 694.992L242.841 695L242.845 695.007L243.284 694.767ZM241.364 692.578L241.078 692.989L241.081 692.991L241.364 692.578ZM238.698 690.252L196.936 693.204L197.006 694.201L238.768 691.249L238.698 690.252ZM197.455 693.825L202.072 675.652L201.102 675.407L196.486 693.58L197.455 693.825ZM201.542 676.028L222.729 677.918L222.818 676.922L201.632 675.032L201.542 676.028ZM222.972 676.961L203.447 668.528L203.05 669.446L222.575 677.879L222.972 676.961ZM203.733 669.11L208.35 650.937L207.38 650.692L202.764 668.864L203.733 669.11ZM207.595 651.235L245.525 675.553L246.065 674.711L208.135 650.394L207.595 651.235ZM245.524 675.552C248.521 677.492 250.989 679.346 252.933 681.111L253.606 680.371C251.61 678.559 249.095 676.673 246.067 674.713L245.524 675.552ZM252.937 681.114C254.925 682.889 256.432 684.684 257.472 686.498L258.34 686.001C257.235 684.073 255.652 682.197 253.603 680.368L252.937 681.114ZM257.476 686.506C258.526 688.269 259.13 690.085 259.297 691.957L260.293 691.868C260.111 689.835 259.456 687.875 258.336 685.994L257.476 686.506ZM259.298 691.969C259.513 693.864 259.344 695.924 258.777 698.154L259.747 698.4C260.337 696.074 260.523 693.891 260.292 691.856L259.298 691.969ZM258.777 698.154C258.467 699.376 258.028 700.513 257.462 701.564L258.343 702.038C258.949 700.91 259.417 699.697 259.747 698.4L258.777 698.154ZM257.465 701.56C256.901 702.581 256.324 703.465 255.735 704.214L256.521 704.832C257.15 704.033 257.756 703.102 258.34 702.042L257.465 701.56ZM255.731 704.219C255.049 705.109 254.34 705.913 253.604 706.632L254.303 707.347C255.076 706.592 255.817 705.752 256.525 704.827L255.731 704.219ZM254.216 706.564L242.509 699.34L241.984 700.191L253.691 707.415L254.216 706.564ZM242.599 700.12C242.823 699.898 243.024 699.666 243.199 699.425L242.39 698.837C242.249 699.031 242.084 699.223 241.894 699.411L242.599 700.12ZM243.173 699.458C243.604 698.959 243.907 698.306 244.105 697.529L243.135 697.283C242.963 697.959 242.717 698.456 242.416 698.804L243.173 699.458ZM244.105 697.529C244.37 696.485 244.241 695.476 243.723 694.528L242.845 695.007C243.243 695.735 243.338 696.485 243.135 697.283L244.105 697.529ZM243.731 694.543C243.247 693.579 242.55 692.786 241.647 692.166L241.081 692.991C241.847 693.517 242.43 694.182 242.837 694.992L243.731 694.543ZM241.649 692.168L239.018 690.34L238.447 691.161L241.079 692.989L241.649 692.168Z" fill="black"/>
<path d="M209.157 618.699L224.877 619.685L223.937 634.655L247.89 636.157L246.762 654.122L207.09 651.634L209.157 618.699Z" fill="#F8DE1E"/>
<path d="M209.157 618.699L209.189 618.2L208.69 618.169L208.658 618.668L209.157 618.699ZM224.877 619.685L225.376 619.716L225.407 619.217L224.908 619.186L224.877 619.685ZM223.937 634.655L223.438 634.624L223.406 635.123L223.905 635.154L223.937 634.655ZM247.89 636.157L248.389 636.188L248.42 635.689L247.921 635.658L247.89 636.157ZM246.762 654.122L246.731 654.621L247.23 654.652L247.261 654.153L246.762 654.122ZM207.09 651.634L206.591 651.603L206.559 652.102L207.058 652.133L207.09 651.634ZM209.126 619.198L224.845 620.184L224.908 619.186L209.189 618.2L209.126 619.198ZM224.378 619.653L223.438 634.624L224.436 634.686L225.376 619.716L224.378 619.653ZM223.905 635.154L247.858 636.656L247.921 635.658L223.968 634.156L223.905 635.154ZM247.391 636.126L246.263 654.09L247.261 654.153L248.389 636.188L247.391 636.126ZM246.793 653.623L207.121 651.135L207.058 652.133L246.731 654.621L246.793 653.623ZM207.589 651.666L209.656 618.73L208.658 618.668L206.591 651.603L207.589 651.666Z" fill="black"/>
<path d="M203.546 580.634L242.868 574.82L245.507 592.625L221.023 596.245L221.463 599.213C226.211 598.511 230.276 598.314 233.658 598.623C236.991 598.939 239.777 599.664 242.017 600.799C244.258 601.933 245.974 603.449 247.165 605.345C248.348 607.191 249.119 609.327 249.479 611.75C249.588 612.492 249.653 613.266 249.671 614.072C249.689 614.878 249.672 615.613 249.619 616.278C249.538 617.099 249.45 617.87 249.355 618.592L236.742 620.457L236.522 618.973C236.383 618.033 236.015 617.254 235.418 616.634C234.813 615.966 233.584 615.516 231.73 615.284C229.819 615.011 227.09 615.01 223.541 615.282C219.936 615.512 215.066 616.08 208.933 616.987L203.546 580.634Z" fill="#F8DE1E"/>
<path d="M203.546 580.634L203.472 580.139L202.978 580.212L203.051 580.707L203.546 580.634ZM242.868 574.82L243.363 574.747L243.29 574.252L242.795 574.325L242.868 574.82ZM245.507 592.625L245.58 593.12L246.075 593.047L246.002 592.552L245.507 592.625ZM221.023 596.245L220.95 595.751L220.455 595.824L220.529 596.319L221.023 596.245ZM221.463 599.213L220.968 599.286L221.042 599.781L221.536 599.708L221.463 599.213ZM233.658 598.623L233.705 598.125L233.704 598.125L233.658 598.623ZM242.017 600.799L241.792 601.245L242.017 600.799ZM247.165 605.345L246.741 605.611L246.744 605.614L247.165 605.345ZM249.671 614.072L249.171 614.083L249.671 614.072ZM249.619 616.278L250.117 616.327L250.117 616.318L249.619 616.278ZM249.355 618.592L249.428 619.086L249.802 619.031L249.851 618.657L249.355 618.592ZM236.742 620.457L236.248 620.53L236.321 621.024L236.816 620.951L236.742 620.457ZM235.418 616.634L235.047 616.97L235.052 616.976L235.058 616.981L235.418 616.634ZM231.73 615.284L231.659 615.779L231.668 615.78L231.73 615.284ZM223.541 615.282L223.573 615.781L223.579 615.78L223.541 615.282ZM208.933 616.987L208.439 617.06L208.512 617.555L209.006 617.482L208.933 616.987ZM203.619 581.129L242.942 575.314L242.795 574.325L203.472 580.139L203.619 581.129ZM242.374 574.893L245.012 592.699L246.002 592.552L243.363 574.747L242.374 574.893ZM245.434 592.131L220.95 595.751L221.096 596.74L245.58 593.12L245.434 592.131ZM220.529 596.319L220.968 599.286L221.958 599.14L221.518 596.172L220.529 596.319ZM221.536 599.708C226.26 599.009 230.283 598.817 233.613 599.121L233.704 598.125C230.27 597.812 226.163 598.013 221.39 598.718L221.536 599.708ZM233.611 599.121C236.901 599.433 239.622 600.146 241.792 601.245L242.243 600.353C239.932 599.182 237.08 598.445 233.705 598.125L233.611 599.121ZM241.792 601.245C243.961 602.343 245.604 603.8 246.741 605.611L247.588 605.079C246.343 603.097 244.555 601.523 242.243 600.353L241.792 601.245ZM246.744 605.614C247.885 607.395 248.634 609.461 248.984 611.823L249.973 611.677C249.605 609.192 248.811 606.988 247.585 605.075L246.744 605.614ZM248.984 611.823C249.091 612.543 249.153 613.296 249.171 614.083L250.171 614.061C250.152 613.236 250.086 612.441 249.973 611.677L248.984 611.823ZM249.171 614.083C249.189 614.875 249.172 615.594 249.12 616.238L250.117 616.318C250.172 615.633 250.19 614.88 250.171 614.061L249.171 614.083ZM249.121 616.229C249.041 617.045 248.954 617.811 248.859 618.526L249.851 618.657C249.947 617.929 250.035 617.153 250.116 616.327L249.121 616.229ZM249.282 618.097L236.669 619.962L236.816 620.951L249.428 619.086L249.282 618.097ZM237.237 620.384L237.017 618.9L236.028 619.046L236.248 620.53L237.237 620.384ZM237.017 618.9C236.864 617.868 236.455 616.989 235.778 616.287L235.058 616.981C235.575 617.518 235.902 618.198 236.028 619.046L237.017 618.9ZM235.789 616.299C235.053 615.485 233.658 615.021 231.792 614.788L231.668 615.78C233.51 616.01 234.573 616.446 235.047 616.97L235.789 616.299ZM231.801 614.789C229.835 614.508 227.063 614.511 223.503 614.783L223.579 615.78C227.117 615.509 229.803 615.513 231.659 615.779L231.801 614.789ZM223.509 614.783C219.884 615.014 214.999 615.585 208.86 616.492L209.006 617.482C215.134 616.575 219.988 616.009 223.573 615.781L223.509 614.783ZM209.428 616.914L204.04 580.561L203.051 580.707L208.439 617.06L209.428 616.914Z" fill="black"/>
<path d="M222.348 573.637C219.68 574.772 216.956 575.332 214.178 575.317C211.381 575.257 208.716 574.678 206.184 573.581C203.651 572.485 201.33 570.863 199.221 568.718C197.111 566.572 195.39 563.935 194.058 560.807C192.745 557.725 192.046 554.681 191.961 551.674C191.857 548.622 192.287 545.804 193.252 543.221C194.216 540.638 195.657 538.341 197.572 536.332C199.469 534.276 201.751 532.681 204.42 531.547C207.089 530.412 209.822 529.875 212.619 529.936C215.397 529.95 218.052 530.506 220.585 531.603C223.117 532.699 225.448 534.344 227.577 536.535C229.687 538.681 231.398 541.295 232.711 544.377C234.043 547.505 234.752 550.572 234.837 553.579C234.922 556.585 234.482 559.38 233.517 561.963C232.552 564.546 231.122 566.866 229.225 568.921C227.31 570.931 225.017 572.503 222.348 573.637ZM211.474 548.107C209.909 548.772 208.863 549.76 208.334 551.071C207.74 552.356 207.698 553.596 208.207 554.792C208.717 555.988 209.651 556.841 211.009 557.35C212.302 557.833 213.73 557.742 215.295 557.077C216.859 556.412 217.938 555.437 218.532 554.152C219.061 552.841 219.07 551.588 218.561 550.392C218.052 549.196 217.15 548.356 215.858 547.873C214.5 547.364 213.038 547.442 211.474 548.107Z" fill="#F8DE1E"/>
<path d="M214.178 575.317L214.168 575.817L214.176 575.817L214.178 575.317ZM199.221 568.718L199.577 568.367L199.221 568.718ZM191.961 551.674L192.461 551.661L192.461 551.658L191.961 551.674ZM193.252 543.221L193.72 543.396L193.252 543.221ZM197.572 536.332L197.935 536.677L197.94 536.671L197.572 536.332ZM212.619 529.936L212.609 530.436L212.617 530.436L212.619 529.936ZM220.585 531.603L220.386 532.061L220.585 531.603ZM227.577 536.535L227.218 536.884L227.22 536.886L227.577 536.535ZM233.517 561.963L233.985 562.138L233.517 561.963ZM229.225 568.921L229.588 569.266L229.593 569.26L229.225 568.921ZM208.334 551.071L208.788 551.281L208.794 551.27L208.798 551.258L208.334 551.071ZM211.009 557.35L210.833 557.818L210.834 557.819L211.009 557.35ZM218.532 554.152L218.986 554.362L218.992 554.351L218.996 554.339L218.532 554.152ZM215.858 547.873L215.682 548.341L215.683 548.342L215.858 547.873ZM222.153 573.177C219.543 574.286 216.887 574.832 214.181 574.817L214.176 575.817C217.025 575.832 219.816 575.257 222.544 574.097L222.153 573.177ZM214.189 574.818C211.455 574.758 208.854 574.193 206.382 573.123L205.985 574.04C208.578 575.163 211.306 575.755 214.168 575.817L214.189 574.818ZM206.382 573.123C203.914 572.054 201.646 570.471 199.577 568.367L198.864 569.068C201.015 571.255 203.388 572.915 205.985 574.04L206.382 573.123ZM199.577 568.367C197.517 566.272 195.829 563.689 194.518 560.611L193.598 561.003C194.951 564.181 196.705 566.872 198.864 569.068L199.577 568.367ZM194.518 560.611C193.227 557.58 192.544 554.598 192.461 551.661L191.461 551.688C191.548 554.764 192.263 557.869 193.598 561.003L194.518 560.611ZM192.461 551.658C192.358 548.664 192.781 545.912 193.72 543.396L192.783 543.046C191.793 545.697 191.355 548.58 191.461 551.691L192.461 551.658ZM193.72 543.396C194.661 540.876 196.065 538.638 197.935 536.677L197.21 535.987C195.248 538.045 193.772 540.399 192.783 543.046L193.72 543.396ZM197.94 536.671C199.786 534.669 202.01 533.114 204.616 532.007L204.224 531.087C201.492 532.248 199.151 533.883 197.205 535.993L197.94 536.671ZM204.616 532.007C207.222 530.899 209.885 530.377 212.609 530.435L212.63 529.436C209.759 529.374 206.956 529.926 204.224 531.087L204.616 532.007ZM212.617 530.436C215.328 530.45 217.916 530.992 220.386 532.061L220.783 531.144C218.189 530.02 215.467 529.451 212.622 529.436L212.617 530.436ZM220.386 532.061C222.852 533.129 225.13 534.734 227.218 536.884L227.936 536.187C225.766 533.954 223.382 532.269 220.783 531.144L220.386 532.061ZM227.22 536.886C229.281 538.982 230.96 541.542 232.251 544.573L233.171 544.182C231.836 541.048 230.092 538.38 227.934 536.185L227.22 536.886ZM232.251 544.573C233.562 547.651 234.254 550.656 234.337 553.593L235.337 553.565C235.25 550.488 234.525 547.36 233.171 544.182L232.251 544.573ZM234.337 553.593C234.42 556.54 233.989 559.27 233.048 561.788L233.985 562.138C234.975 559.489 235.423 556.63 235.337 553.565L234.337 553.593ZM233.048 561.788C232.106 564.31 230.71 566.574 228.858 568.582L229.593 569.26C231.533 567.158 232.998 564.783 233.985 562.138L233.048 561.788ZM228.863 568.577C226.997 570.535 224.762 572.068 222.153 573.177L222.544 574.097C225.273 572.938 227.623 571.327 229.588 569.266L228.863 568.577ZM211.278 547.647C209.618 548.353 208.458 549.426 207.87 550.884L208.798 551.258C209.267 550.094 210.201 549.191 211.67 548.567L211.278 547.647ZM207.88 550.861C207.233 552.262 207.177 553.65 207.747 554.988L208.668 554.597C208.219 553.543 208.248 552.451 208.788 551.281L207.88 550.861ZM207.747 554.988C208.317 556.325 209.363 557.267 210.833 557.818L211.184 556.882C209.938 556.415 209.117 555.652 208.668 554.597L207.747 554.988ZM210.834 557.819C212.273 558.356 213.837 558.24 215.491 557.537L215.099 556.617C213.623 557.244 212.33 557.31 211.184 556.882L210.834 557.819ZM215.491 557.537C217.145 556.834 218.33 555.781 218.986 554.362L218.078 553.943C217.546 555.093 216.573 555.99 215.099 556.617L215.491 557.537ZM218.996 554.339C219.57 552.917 219.587 551.525 219.021 550.196L218.101 550.587C218.553 551.65 218.552 552.765 218.069 553.965L218.996 554.339ZM219.021 550.196C218.454 548.866 217.445 547.933 216.033 547.405L215.683 548.342C216.856 548.78 217.649 549.526 218.101 550.587L219.021 550.196ZM216.033 547.405C214.534 546.843 212.939 546.941 211.278 547.647L211.67 548.567C213.138 547.943 214.465 547.885 215.682 548.341L216.033 547.405Z" fill="black"/>
<path d="M191.405 514.25C192.777 513.247 193.577 512.012 193.804 510.545C193.991 509.108 193.522 507.623 192.399 506.09C191.838 505.324 191.2 504.707 190.485 504.238C189.74 503.73 189.029 503.352 188.351 503.104C187.574 502.805 186.787 502.576 185.988 502.416L191.242 489.283C192.989 489.554 194.714 490.089 196.416 490.888C197.919 491.586 199.553 492.59 201.319 493.9C203.085 495.21 204.766 496.954 206.362 499.132C208.253 501.713 209.553 504.418 210.261 507.245C210.969 510.072 211.147 512.853 210.795 515.588C210.414 518.282 209.519 520.826 208.111 523.218C206.703 525.611 204.828 527.663 202.488 529.375C200.147 531.086 197.622 532.251 194.913 532.869C192.205 533.487 189.508 533.57 186.821 533.119C184.105 532.627 181.506 531.617 179.022 530.088C176.538 528.56 174.351 526.505 172.459 523.924C170.863 521.746 169.727 519.603 169.051 517.496C168.335 515.419 167.871 513.559 167.659 511.917C167.411 510.055 167.401 508.265 167.631 506.549L181.75 505.515C181.661 506.324 181.642 507.143 181.692 507.974C181.724 508.694 181.87 509.485 182.13 510.348C182.361 511.17 182.757 511.965 183.318 512.731C184.441 514.263 185.737 515.143 187.205 515.37C188.633 515.627 190.033 515.254 191.405 514.25Z" fill="#F8DE1E"/>
<path d="M193.804 510.545L194.298 510.621L194.3 510.609L193.804 510.545ZM190.485 504.238L190.202 504.651L190.21 504.656L190.485 504.238ZM188.351 503.104L188.172 503.57L188.18 503.573L188.351 503.104ZM185.988 502.416L185.524 502.231L185.3 502.789L185.89 502.906L185.988 502.416ZM191.242 489.283L191.318 488.789L190.925 488.729L190.777 489.098L191.242 489.283ZM196.416 490.888L196.203 491.341L196.205 491.342L196.416 490.888ZM201.319 493.9L201.617 493.499L201.319 493.9ZM210.261 507.245L209.775 507.366L210.261 507.245ZM210.795 515.588L211.291 515.658L211.291 515.652L210.795 515.588ZM208.111 523.218L208.542 523.472L208.111 523.218ZM186.821 533.119L186.732 533.611L186.738 533.612L186.821 533.119ZM179.022 530.088L179.284 529.663L179.022 530.088ZM169.051 517.496L169.528 517.344L169.524 517.333L169.051 517.496ZM167.659 511.917L168.155 511.853L168.155 511.851L167.659 511.917ZM167.631 506.549L167.594 506.05L167.189 506.08L167.135 506.482L167.631 506.549ZM181.75 505.515L182.248 505.57L182.313 504.973L181.714 505.017L181.75 505.515ZM181.692 507.974L182.192 507.952L182.191 507.943L181.692 507.974ZM182.13 510.348L182.612 510.213L182.609 510.204L182.13 510.348ZM187.205 515.37L187.294 514.878L187.282 514.877L187.205 515.37ZM191.701 514.654C193.163 513.584 194.048 512.238 194.298 510.621L193.31 510.468C193.106 511.785 192.392 512.909 191.11 513.847L191.701 514.654ZM194.3 510.609C194.508 509.009 193.978 507.398 192.803 505.795L191.996 506.385C193.067 507.848 193.473 509.206 193.308 510.481L194.3 510.609ZM192.803 505.795C192.21 504.986 191.529 504.325 190.759 503.82L190.21 504.656C190.87 505.088 191.466 505.662 191.996 506.385L192.803 505.795ZM190.767 503.826C189.996 503.299 189.248 502.9 188.523 502.635L188.18 503.573C188.81 503.804 189.484 504.16 190.202 504.651L190.767 503.826ZM188.531 502.637C187.728 502.328 186.913 502.091 186.086 501.926L185.89 502.906C186.66 503.06 187.421 503.281 188.172 503.57L188.531 502.637ZM186.453 502.602L191.706 489.469L190.777 489.098L185.524 502.231L186.453 502.602ZM191.165 489.777C192.863 490.04 194.542 490.56 196.203 491.341L196.629 490.436C194.886 489.618 193.116 489.068 191.318 488.789L191.165 489.777ZM196.205 491.342C197.669 492.021 199.274 493.005 201.021 494.301L201.617 493.499C199.832 492.174 198.168 491.151 196.627 490.435L196.205 491.342ZM201.021 494.301C202.738 495.576 204.385 497.281 205.958 499.427L206.765 498.837C205.146 496.628 203.431 494.845 201.617 493.499L201.021 494.301ZM205.958 499.427C207.815 501.961 209.085 504.607 209.775 507.366L210.746 507.124C210.021 504.228 208.691 501.465 206.765 498.837L205.958 499.427ZM209.775 507.366C210.469 510.136 210.642 512.854 210.299 515.524L211.291 515.652C211.651 512.851 211.468 510.008 210.746 507.124L209.775 507.366ZM210.3 515.518C209.928 518.146 209.056 520.627 207.68 522.965L208.542 523.472C209.983 521.024 210.9 518.418 211.29 515.658L210.3 515.518ZM207.68 522.965C206.308 525.296 204.48 527.298 202.192 528.971L202.783 529.778C205.176 528.028 207.098 525.925 208.542 523.472L207.68 522.965ZM202.192 528.971C199.904 530.645 197.441 531.78 194.802 532.382L195.025 533.356C197.803 532.723 200.39 531.528 202.783 529.778L202.192 528.971ZM194.802 532.382C192.156 532.986 189.525 533.066 186.904 532.626L186.738 533.612C189.491 534.074 192.254 533.989 195.025 533.356L194.802 532.382ZM186.91 532.627C184.259 532.147 181.718 531.161 179.284 529.663L178.76 530.514C181.293 532.073 183.952 533.107 186.732 533.611L186.91 532.627ZM179.284 529.663C176.861 528.171 174.72 526.163 172.863 523.629L172.056 524.219C173.981 526.847 176.216 528.948 178.76 530.514L179.284 529.663ZM172.863 523.629C171.292 521.485 170.184 519.39 169.527 517.344L168.575 517.649C169.27 519.817 170.435 522.007 172.056 524.219L172.863 523.629ZM169.524 517.333C168.815 515.278 168.361 513.453 168.155 511.853L167.163 511.981C167.38 513.665 167.854 515.559 168.578 517.659L169.524 517.333ZM168.155 511.851C167.912 510.029 167.903 508.284 168.127 506.615L167.135 506.482C166.899 508.247 166.909 510.081 167.164 511.983L168.155 511.851ZM167.668 507.047L181.787 506.014L181.714 505.017L167.594 506.05L167.668 507.047ZM181.253 505.46C181.161 506.298 181.141 507.146 181.193 508.004L182.191 507.943C182.143 507.141 182.161 506.35 182.248 505.57L181.253 505.46ZM181.192 507.995C181.226 508.766 181.382 509.599 181.651 510.492L182.609 510.204C182.358 509.371 182.221 508.622 182.192 507.952L181.192 507.995ZM181.648 510.483C181.897 511.369 182.322 512.217 182.915 513.026L183.722 512.436C183.192 511.712 182.825 510.972 182.612 510.213L181.648 510.483ZM182.915 513.026C184.093 514.634 185.495 515.612 187.129 515.864L187.282 514.877C185.978 514.675 184.79 513.893 183.722 512.436L182.915 513.026ZM187.117 515.862C188.703 516.147 190.239 515.723 191.701 514.654L191.11 513.847C189.827 514.785 188.563 515.107 187.294 514.879L187.117 515.862Z" fill="black"/>
<path d="M138.974 486.895L149.928 475.579L156.94 482.353L173.633 465.109L186.579 477.615L169.886 494.859L176.899 501.633L165.944 512.95L138.974 486.895Z" fill="#F8DE1E"/>
<path d="M138.974 486.895L138.614 486.548L138.266 486.907L138.626 487.255L138.974 486.895ZM149.928 475.579L150.276 475.219L149.916 474.872L149.569 475.231L149.928 475.579ZM156.94 482.353L156.593 482.712L156.952 483.06L157.3 482.7L156.94 482.353ZM173.633 465.109L173.98 464.749L173.621 464.402L173.273 464.761L173.633 465.109ZM186.579 477.615L186.938 477.962L187.286 477.603L186.926 477.255L186.579 477.615ZM169.886 494.859L169.527 494.512L169.179 494.871L169.539 495.218L169.886 494.859ZM176.899 501.633L177.258 501.981L177.606 501.621L177.246 501.274L176.899 501.633ZM165.944 512.95L165.597 513.309L165.956 513.657L166.304 513.297L165.944 512.95ZM139.333 487.243L150.288 475.926L149.569 475.231L138.614 486.548L139.333 487.243ZM149.58 475.938L156.593 482.712L157.288 481.994L150.276 475.219L149.58 475.938ZM157.3 482.7L173.992 465.456L173.273 464.761L156.581 482.005L157.3 482.7ZM173.285 465.468L186.231 477.974L186.926 477.255L173.98 464.749L173.285 465.468ZM186.219 477.267L169.527 494.512L170.246 495.206L186.938 477.962L186.219 477.267ZM169.539 495.218L176.551 501.993L177.246 501.274L170.234 494.5L169.539 495.218ZM176.539 501.286L165.585 512.603L166.304 513.297L177.258 501.981L176.539 501.286ZM166.292 512.591L139.322 486.536L138.626 487.255L165.597 513.309L166.292 512.591Z" fill="black"/>
<path d="M127.479 465.994C125.57 464.623 124.058 463.043 122.942 461.256C121.785 459.44 121.033 457.575 120.685 455.663C120.296 453.721 120.317 451.766 120.748 449.798C121.151 447.871 121.95 446.075 123.148 444.411C124.346 442.748 125.831 441.413 127.602 440.408C129.344 439.443 131.279 438.894 133.408 438.761C135.537 438.629 137.85 438.967 140.348 439.777C142.805 440.557 145.373 441.91 148.053 443.836C150.367 445.499 152.409 447.027 154.178 448.421C155.976 449.775 157.495 450.959 158.736 451.974C160.221 453.164 161.488 454.228 162.537 455.167L139.311 487.426L124.694 476.922L131.048 468.097C130.694 467.904 130.299 467.682 129.864 467.431C129.51 467.238 129.135 467.03 128.741 466.808C128.306 466.557 127.885 466.286 127.479 465.994ZM138.449 459.1L141.955 454.231L141.041 453.574C140.432 453.137 139.779 452.975 139.081 453.089C138.353 453.243 137.712 453.706 137.157 454.477C136.602 455.248 136.381 455.982 136.495 456.68C136.58 457.418 136.927 458.006 137.536 458.444L138.449 459.1Z" fill="#F8DE1E"/>
<path d="M122.942 461.256L123.366 460.992L123.364 460.988L122.942 461.256ZM120.685 455.663L121.177 455.573L121.175 455.565L120.685 455.663ZM120.748 449.798L121.237 449.905L121.238 449.9L120.748 449.798ZM127.602 440.408L127.359 439.971L127.355 439.973L127.602 440.408ZM133.408 438.761L133.377 438.263L133.408 438.761ZM140.348 439.777L140.193 440.252L140.196 440.253L140.348 439.777ZM154.178 448.421L153.868 448.814L153.877 448.821L154.178 448.421ZM158.736 451.974L158.419 452.361L158.423 452.364L158.736 451.974ZM162.537 455.167L162.943 455.459L163.206 455.094L162.871 454.794L162.537 455.167ZM139.311 487.426L139.019 487.831L139.425 488.123L139.717 487.717L139.311 487.426ZM124.694 476.922L124.288 476.63L123.996 477.036L124.402 477.328L124.694 476.922ZM131.048 468.097L131.454 468.388L131.785 467.929L131.287 467.658L131.048 468.097ZM129.864 467.431L130.114 466.998L130.103 466.992L129.864 467.431ZM128.741 466.808L128.491 467.241L128.495 467.244L128.741 466.808ZM138.449 459.1L138.157 459.506L138.563 459.798L138.855 459.392L138.449 459.1ZM141.955 454.231L142.361 454.522L142.653 454.117L142.247 453.825L141.955 454.231ZM139.081 453.089L139 452.596L138.988 452.597L138.977 452.6L139.081 453.089ZM136.495 456.68L136.992 456.623L136.991 456.611L136.989 456.599L136.495 456.68ZM127.771 465.588C125.909 464.25 124.444 462.717 123.366 460.992L122.518 461.521C123.672 463.369 125.232 464.995 127.187 466.4L127.771 465.588ZM123.364 460.988C122.238 459.22 121.512 457.416 121.177 455.573L120.193 455.753C120.553 457.735 121.332 459.66 122.52 461.525L123.364 460.988ZM121.175 455.565C120.8 453.692 120.82 451.807 121.237 449.905L120.26 449.691C119.814 451.726 119.792 453.751 120.194 455.761L121.175 455.565ZM121.238 449.9C121.625 448.044 122.396 446.312 123.554 444.703L122.742 444.119C121.505 445.838 120.676 447.697 120.259 449.696L121.238 449.9ZM123.554 444.703C124.71 443.097 126.141 441.812 127.849 440.842L127.355 439.973C125.52 441.014 123.982 442.398 122.742 444.119L123.554 444.703ZM127.844 440.845C129.517 439.919 131.379 439.389 133.439 439.26L133.377 438.263C131.179 438.4 129.171 438.967 127.359 439.971L127.844 440.845ZM133.439 439.26C135.492 439.132 137.742 439.457 140.193 440.252L140.502 439.301C137.958 438.477 135.581 438.125 133.377 438.263L133.439 439.26ZM140.196 440.253C142.591 441.014 145.112 442.338 147.761 444.242L148.345 443.43C145.634 441.482 143.018 440.1 140.499 439.3L140.196 440.253ZM147.761 444.242C150.071 445.901 152.106 447.425 153.868 448.814L154.488 448.029C152.712 446.629 150.664 445.096 148.345 443.43L147.761 444.242ZM153.877 448.821C155.671 450.172 157.185 451.351 158.419 452.361L159.053 451.587C157.805 450.567 156.28 449.378 154.479 448.022L153.877 448.821ZM158.423 452.364C159.903 453.55 161.163 454.608 162.203 455.539L162.871 454.794C161.813 453.848 160.539 452.778 159.049 451.584L158.423 452.364ZM162.131 454.875L138.905 487.134L139.717 487.717L162.943 455.459L162.131 454.875ZM139.604 487.02L124.986 476.516L124.402 477.328L139.019 487.831L139.604 487.02ZM125.1 477.214L131.454 468.388L130.642 467.805L124.288 476.63L125.1 477.214ZM131.287 467.658C130.938 467.467 130.547 467.247 130.114 466.998L129.614 467.863C130.052 468.116 130.45 468.34 130.808 468.535L131.287 467.658ZM130.103 466.992C129.752 466.8 129.379 466.594 128.986 466.373L128.495 467.244C128.892 467.467 129.268 467.675 129.624 467.869L130.103 466.992ZM128.991 466.375C128.57 466.133 128.164 465.87 127.771 465.588L127.187 466.4C127.606 466.701 128.041 466.982 128.491 467.241L128.991 466.375ZM138.855 459.392L142.361 454.522L141.549 453.939L138.043 458.808L138.855 459.392ZM142.247 453.825L141.334 453.168L140.749 453.98L141.663 454.636L142.247 453.825ZM141.334 453.168C140.624 452.659 139.838 452.459 139 452.596L139.161 453.582C139.72 453.491 140.241 453.615 140.749 453.98L141.334 453.168ZM138.977 452.6C138.097 452.787 137.358 453.342 136.751 454.185L137.563 454.769C138.066 454.07 138.61 453.7 139.185 453.578L138.977 452.6ZM136.751 454.185C136.146 455.026 135.86 455.892 136.001 456.76L136.989 456.599C136.903 456.073 137.058 455.47 137.563 454.769L136.751 454.185ZM135.998 456.737C136.099 457.616 136.521 458.33 137.244 458.849L137.828 458.038C137.332 457.681 137.061 457.22 136.992 456.623L135.998 456.737ZM137.244 458.849L138.157 459.506L138.741 458.694L137.828 458.038L137.244 458.849Z" fill="black"/>
</svg>
