<svg width="1771" height="1449" viewBox="0 0 1771 1449" fill="none" xmlns="http://www.w3.org/2000/svg">
<path fill-rule="evenodd" clip-rule="evenodd" d="M1645.7 245.144C1643.19 205.868 1610.33 168.033 1562.43 153.865C1515.3 139.927 1468.03 153.158 1444.29 183.709C1399.9 170.15 1351.54 180.456 1325.96 212.084C1300.39 243.707 1305.37 287.013 1334.75 319.117C1310.54 349.032 1312.59 392.096 1343.38 425.93C1375.13 460.831 1427.51 474.969 1470.74 463.187C1499.93 496.845 1551.04 514.231 1596.85 503.123C1642.19 492.126 1668.31 456.6 1664.05 417.518C1705.79 406.312 1733.39 373.656 1729.76 334.12C1726.05 293.816 1691.01 258.588 1645.7 245.144Z" fill="white" stroke="black"/>
<path d="M1594.54 342.559C1592.25 349.775 1596.24 357.479 1603.46 359.768C1610.67 362.057 1618.38 358.063 1620.67 350.848C1622.96 343.632 1618.96 335.928 1611.75 333.639C1604.53 331.35 1596.83 335.344 1594.54 342.559Z" fill="black"/>
<path d="M1412.97 284.966C1410.69 292.181 1414.68 299.885 1421.9 302.174C1429.11 304.463 1436.82 300.469 1439.1 293.254C1441.39 286.039 1437.4 278.334 1430.18 276.045C1422.97 273.756 1415.26 277.75 1412.97 284.966Z" fill="black"/>
<path fill-rule="evenodd" clip-rule="evenodd" d="M1506.47 340.432C1514.68 343.081 1524.24 342.355 1531.61 336.886L1530.35 335.193C1523.63 340.182 1514.8 340.906 1507.12 338.425C1499.43 335.943 1493.06 330.313 1491.13 322.812L1489.09 323.339C1491.24 331.703 1498.27 337.785 1506.47 340.432Z" fill="black"/>
<path fill-rule="evenodd" clip-rule="evenodd" d="M458.008 898.559C430.305 863.805 375.43 849.993 321.909 867.823C269.257 885.364 234.027 928.161 231.779 971.794C181.902 987.921 143.779 1028.71 140.525 1074.53C137.271 1120.34 169.865 1157.23 217.821 1167.98C214.729 1211.33 244.451 1249.89 294.823 1261.33C346.782 1273.14 404.425 1252.39 436.853 1213.55C485.631 1225.86 544.207 1208.93 579.451 1169.05C614.345 1129.57 615.577 1079.79 586.38 1046.35C617.799 1009 622.261 960.92 593.35 926.651C563.877 891.718 508.663 881.732 458.008 898.559Z" fill="white" stroke="black"/>
<path d="M473.566 1021.84C476.108 1030 484.785 1034.55 492.946 1032.01C501.108 1029.47 505.663 1020.79 503.121 1012.63C500.578 1004.47 491.901 999.914 483.74 1002.46C475.579 1005 471.024 1013.68 473.566 1021.84Z" fill="black"/>
<path d="M268.199 1085.81C270.741 1093.97 279.418 1098.52 287.579 1095.98C295.741 1093.44 300.296 1084.76 297.754 1076.6C295.211 1068.44 286.534 1063.89 278.373 1066.43C270.212 1068.97 265.656 1077.65 268.199 1085.81Z" fill="black"/>
<path fill-rule="evenodd" clip-rule="evenodd" d="M390.627 1076.77C399.939 1073.92 408.326 1067.07 411.616 1057.24L409.358 1056.49C406.357 1065.45 398.65 1071.82 389.931 1074.49C381.204 1077.16 371.672 1076.06 365.035 1070.36L363.484 1072.17C370.886 1078.52 381.323 1079.62 390.627 1076.77Z" fill="black"/>
<path fill-rule="evenodd" clip-rule="evenodd" d="M321.041 308.245C304.666 289.487 273.607 283.131 244.098 294.45C215.068 305.585 196.421 330.42 196.255 354.898C168.743 365.172 148.427 388.954 147.752 414.681C147.078 440.404 166.244 460.235 193.353 465.05C192.708 489.389 210.308 510.227 238.788 515.372C268.164 520.679 299.907 507.625 317.085 485.071C344.694 490.742 377.054 479.802 395.782 456.599C414.324 433.625 413.767 405.735 396.589 387.748C413.239 366.057 414.533 339.037 397.494 320.581C380.123 301.766 348.97 297.559 321.041 308.245Z" fill="white" stroke="black"/>
<path fill-rule="evenodd" clip-rule="evenodd" d="M244.281 294.927C273.637 283.667 304.452 290.021 320.655 308.581L320.89 308.851L321.224 308.723C349.021 298.088 379.93 302.311 397.117 320.927C413.948 339.157 412.72 365.891 396.183 387.435L395.915 387.783L396.218 388.101C413.192 405.873 413.789 433.471 395.383 456.276C376.778 479.328 344.612 490.201 317.188 484.568L316.872 484.504L316.677 484.76C299.614 507.163 268.062 520.139 238.879 514.867C210.61 509.76 193.228 489.112 193.865 465.063L193.877 464.622L193.443 464.545C166.528 459.764 147.598 440.11 148.264 414.694C148.932 389.23 169.062 365.599 196.434 355.377L196.765 355.253L196.767 354.9C196.932 330.678 215.403 306.004 244.281 294.927ZM321.191 307.639C304.583 288.892 273.436 282.647 243.914 293.97C214.871 305.111 196.09 329.923 195.746 354.541C168.261 364.934 147.919 388.781 147.24 414.667C146.561 440.558 165.756 460.492 192.832 465.476C192.401 489.914 210.178 510.723 238.697 515.875C268.155 521.197 299.961 508.183 317.297 485.636C345.022 491.198 377.402 480.187 396.181 456.92C414.75 433.912 414.348 405.922 397.26 387.711C413.772 365.932 415.027 338.816 397.87 320.232C380.386 301.295 349.168 297.063 321.191 307.639Z" fill="black"/>
<path d="M332.834 376.854C334.461 381.358 339.432 383.69 343.936 382.063C348.44 380.436 350.773 375.466 349.145 370.961C347.518 366.457 342.548 364.125 338.044 365.752C333.539 367.379 331.207 372.35 332.834 376.854Z" fill="black"/>
<path d="M219.494 417.799C221.122 422.303 226.092 424.636 230.596 423.008C235.1 421.381 237.433 416.411 235.806 411.907C234.178 407.402 229.208 405.07 224.704 406.697C220.2 408.324 217.867 413.295 219.494 417.799Z" fill="black"/>
<path fill-rule="evenodd" clip-rule="evenodd" d="M287.79 409.675C292.93 407.848 297.453 403.802 299.048 398.221L297.766 397.855C296.31 402.947 292.157 406.707 287.343 408.418C282.526 410.13 277.164 409.752 273.306 406.73L272.483 407.78C276.785 411.151 282.654 411.501 287.79 409.675Z" fill="black"/>
<path fill-rule="evenodd" clip-rule="evenodd" d="M609.348 163.419C605.6 138.803 582.807 116.768 551.833 110.479C521.363 104.293 492.299 115.238 479.021 135.802C450.293 129.703 420.386 138.864 406.008 160.209C391.632 181.55 397.159 208.57 417.447 227.184C403.839 247.373 407.504 274.402 428.771 294.029C450.709 314.276 484.499 320.299 511.098 310.49C531.349 330.094 564.524 338.234 592.78 328.708C620.756 319.277 635.257 295.446 630.417 271.049C656.108 261.685 671.703 239.582 667.233 214.864C662.676 189.666 638.649 169.394 609.348 163.419Z" fill="white" stroke="black"/>
<path fill-rule="evenodd" clip-rule="evenodd" d="M551.732 110.982C582.545 117.238 605.134 139.139 608.842 163.496L608.896 163.85L609.246 163.921C638.408 169.868 662.22 190.022 666.729 214.955C671.145 239.37 655.759 261.267 630.242 270.568L629.83 270.718L629.915 271.149C634.697 295.255 620.388 318.861 592.617 328.223C564.545 337.686 531.57 329.595 511.454 310.122L511.223 309.898L510.921 310.01C484.499 319.753 450.912 313.766 429.119 293.653C408.009 274.171 404.426 247.419 417.872 227.47L418.119 227.105L417.794 226.807C397.651 208.325 392.229 181.582 406.433 160.495C420.665 139.369 450.333 130.235 478.915 136.303L479.26 136.376L479.451 136.08C492.591 115.731 521.42 104.827 551.732 110.982ZM609.8 162.989C605.85 138.257 582.922 116.269 551.936 109.977C521.452 103.788 492.287 114.641 478.783 135.228C450.015 129.244 420.051 138.446 405.584 159.923C391.114 181.404 396.609 208.526 416.779 227.264C403.298 247.652 407.127 274.751 428.424 294.406C450.423 314.709 484.244 320.8 510.973 311.081C531.38 330.656 564.612 338.745 592.944 329.194C620.961 319.749 635.646 295.916 631.003 271.38C656.625 261.866 672.239 239.661 667.738 214.773C663.151 189.41 639.083 169.082 609.8 162.989Z" fill="black"/>
<path d="M582.472 227.637C581.427 232.311 584.369 236.947 589.043 237.992C593.717 239.036 598.353 236.094 599.397 231.421C600.442 226.747 597.5 222.111 592.826 221.066C588.153 220.021 583.517 222.963 582.472 227.637Z" fill="black"/>
<path d="M464.867 201.348C463.822 206.022 466.764 210.658 471.437 211.702C476.111 212.747 480.747 209.805 481.792 205.132C482.837 200.458 479.895 195.822 475.221 194.777C470.547 193.732 465.911 196.674 464.867 201.348Z" fill="black"/>
<path fill-rule="evenodd" clip-rule="evenodd" d="M526.851 231.152C532.169 232.369 538.156 231.384 542.498 227.531L541.612 226.534C537.651 230.049 532.129 230.991 527.149 229.852C522.165 228.711 517.843 225.513 516.211 220.892L514.953 221.337C516.773 226.49 521.537 229.936 526.851 231.152Z" fill="black"/>
<path fill-rule="evenodd" clip-rule="evenodd" d="M1494.6 819.395C1482.11 798.656 1453.46 787.292 1423.29 793.109C1393.61 798.832 1371.54 819.434 1367.22 842.836C1339.14 847.993 1315.65 867.303 1310.63 891.814C1305.61 916.32 1320.59 938.561 1345.72 947.779C1340.96 970.966 1354.27 993.904 1380.65 1003.67C1407.87 1013.74 1440.47 1006.65 1460.75 987.978C1486.21 998.1 1519.05 993.13 1540.92 974.104C1562.57 955.266 1566.78 928.475 1553.39 908.338C1573.02 890.406 1578.85 864.763 1565.68 844.2C1552.25 823.238 1523.15 813.915 1494.6 819.395Z" fill="white" stroke="black"/>
<path fill-rule="evenodd" clip-rule="evenodd" d="M1423.39 793.598C1453.4 787.811 1481.82 799.132 1494.17 819.652L1494.35 819.95L1494.69 819.884C1523.11 814.43 1551.98 823.728 1565.26 844.469C1578.27 864.779 1572.55 890.16 1553.06 907.97L1552.74 908.258L1552.98 908.613C1566.21 928.51 1562.09 955.028 1540.59 973.728C1518.86 992.63 1486.23 997.569 1460.93 987.515L1460.64 987.399L1460.41 987.611C1440.27 1006.15 1407.86 1013.21 1380.83 1003.2C1354.64 993.509 1341.51 970.79 1346.21 947.879L1346.29 947.459L1345.89 947.311C1320.94 938.159 1306.16 916.129 1311.12 891.914C1316.09 867.653 1339.38 848.457 1367.31 843.326L1367.65 843.264L1367.71 842.926C1371.99 819.769 1393.86 799.292 1423.39 793.598ZM1494.84 818.842C1482.14 798.074 1453.38 786.8 1423.2 792.62C1393.51 798.346 1371.31 818.903 1366.8 842.408C1338.72 847.684 1315.2 867.051 1310.15 891.714C1305.1 916.381 1320.08 938.725 1345.15 948.098C1340.58 971.417 1354.06 994.357 1380.48 1004.14C1407.77 1014.24 1440.43 1007.19 1460.86 988.555C1486.45 998.592 1519.32 993.558 1541.25 974.479C1562.93 955.614 1567.3 928.753 1554.04 908.418C1573.55 890.378 1579.36 864.636 1566.1 843.932C1552.58 822.833 1523.42 813.474 1494.84 818.842Z" fill="black"/>
<path d="M1494.22 887.071C1495.01 891.659 1499.37 894.736 1503.96 893.945C1508.55 893.153 1511.63 888.792 1510.84 884.204C1510.04 879.616 1505.68 876.538 1501.1 877.33C1496.51 878.122 1493.43 882.483 1494.22 887.071Z" fill="black"/>
<path d="M1378.77 906.995C1379.56 911.583 1383.92 914.66 1388.51 913.869C1393.1 913.077 1396.18 908.716 1395.39 904.128C1394.59 899.54 1390.23 896.462 1385.65 897.254C1381.06 898.046 1377.98 902.407 1378.77 906.995Z" fill="black"/>
<path fill-rule="evenodd" clip-rule="evenodd" d="M1445.53 910.83C1450.76 909.955 1455.77 906.852 1458.25 901.781L1457.08 901.212C1454.83 905.838 1450.21 908.731 1445.31 909.551C1440.41 910.371 1435.34 909.098 1432.16 905.548L1431.2 906.414C1434.74 910.372 1440.3 911.704 1445.53 910.83Z" fill="black"/>
<path fill-rule="evenodd" clip-rule="evenodd" d="M1074.07 1131.23C1069.65 1102.41 1043.09 1077.14 1007.05 1070.59C971.601 1064.15 937.827 1077.8 922.433 1102.32C889.009 1095.94 854.25 1107.51 837.579 1132.98C820.911 1158.45 827.402 1190.05 851.041 1211.37C835.263 1235.46 839.59 1267.12 864.369 1289.6C889.93 1312.79 929.241 1318.95 960.152 1306.7C983.75 1329.19 1022.35 1337.85 1055.19 1325.89C1087.7 1314.05 1104.51 1285.66 1098.82 1257.12C1128.68 1245.42 1146.76 1219.03 1141.51 1190.11C1136.15 1160.62 1108.16 1137.46 1074.07 1131.23Z" fill="white" stroke="black"/>
<path fill-rule="evenodd" clip-rule="evenodd" d="M1006.94 1071.19C1042.79 1077.7 1069.11 1102.82 1073.48 1131.34L1073.54 1131.75L1073.95 1131.83C1107.88 1138.02 1135.62 1161.06 1140.93 1190.23C1146.12 1218.79 1128.28 1244.94 1098.62 1256.56L1098.14 1256.75L1098.24 1257.25C1103.86 1285.45 1087.28 1313.57 1055 1325.33C1022.38 1337.21 984.01 1328.6 960.57 1306.26L960.3 1306.01L959.949 1306.15C929.244 1318.31 890.17 1312.19 864.777 1289.15C840.18 1266.83 835.95 1235.5 851.54 1211.69L851.826 1211.26L851.447 1210.92C827.977 1189.75 821.608 1158.47 838.078 1133.31C854.578 1108.1 889.06 1096.56 922.314 1102.92L922.716 1102.99L922.938 1102.64C938.171 1078.37 971.673 1064.78 1006.94 1071.19ZM1074.59 1130.72C1069.94 1101.77 1043.23 1076.55 1007.17 1070C971.707 1063.56 937.814 1077.1 922.159 1101.66C888.687 1095.41 853.862 1107.03 837.088 1132.66C820.311 1158.29 826.766 1190.01 850.267 1211.48C834.638 1235.8 839.156 1267.54 863.97 1290.05C889.603 1313.31 928.95 1319.55 960.013 1307.4C983.792 1329.85 1022.46 1338.45 1055.39 1326.46C1087.95 1314.6 1104.97 1286.2 1099.51 1257.5C1129.29 1245.62 1147.39 1219.11 1142.1 1189.99C1136.7 1160.31 1108.66 1137.08 1074.59 1130.72Z" fill="black"/>
<path d="M1042.96 1207.42C1041.76 1212.94 1045.19 1218.3 1050.63 1219.4C1056.07 1220.5 1061.45 1216.92 1062.65 1211.4C1063.86 1205.88 1060.43 1200.51 1054.99 1199.41C1049.55 1198.31 1044.17 1201.9 1042.96 1207.42Z" fill="black"/>
<path d="M906.127 1179.72C904.923 1185.24 908.356 1190.61 913.794 1191.71C919.232 1192.81 924.616 1189.23 925.82 1183.71C927.024 1178.19 923.592 1172.82 918.154 1171.72C912.716 1170.62 907.331 1174.2 906.127 1179.72Z" fill="black"/>
<path fill-rule="evenodd" clip-rule="evenodd" d="M978.28 1213.06C984.467 1214.34 991.428 1213.02 996.468 1208.38L995.436 1207.23C990.838 1211.47 984.417 1212.72 978.623 1211.52C972.824 1210.32 967.791 1206.68 965.881 1201.29L964.419 1201.85C966.549 1207.85 972.097 1211.77 978.28 1213.06Z" fill="black"/>
<path d="M821.697 305.394L929.718 206.37L1032.25 311.105L1177.81 294.504L1199.25 439.551L1326.77 511.75L1258.96 641.652L1319.78 775.066L1188.56 840.23L1159.42 983.909L1014.92 959.441L906.948 1058.49L804.405 953.718L658.844 970.318L637.401 825.272L509.844 753.085L577.696 623.171L516.877 489.757L648.091 424.593L677.248 280.954L821.697 305.394Z" fill="#FBDE14" stroke="black" stroke-miterlimit="10"/>
<circle cx="770.377" cy="432.584" r="21.1963" transform="rotate(-0.489939 770.377 432.584)" fill="black"/>
<circle cx="1065.79" cy="430.055" r="21.1963" transform="rotate(-0.489939 1065.79 430.055)" fill="black"/>
<path d="M888.447 451.445C904.505 474.55 941.444 473.676 954.683 450.879" stroke="black"/>
</svg>
