<svg width="1441" height="712" viewBox="0 0 1441 712" fill="none" xmlns="http://www.w3.org/2000/svg">
<line x1="0.394531" y1="711.5" x2="1440.39" y2="711.5" stroke="#F8DE1E"/>
<line x1="0.394531" y1="140.5" x2="1440.39" y2="140.5" stroke="#F8DE1E"/>
<line x1="0.394531" y1="116.5" x2="1440.39" y2="116.5" stroke="#F8DE1E"/>
<line x1="0.394531" y1="560.5" x2="1440.39" y2="560.5" stroke="#F8DE1E"/>
<line x1="0.394531" y1="242.5" x2="1440.39" y2="242.5" stroke="#F8DE1E"/>
<path d="M1023.04 40.6464C1022.85 40.8417 1022.85 41.1583 1023.04 41.3536L1026.22 44.5355C1026.42 44.7308 1026.73 44.7308 1026.93 44.5355C1027.13 44.3403 1027.13 44.0237 1026.93 43.8284L1024.1 41L1026.93 38.1716C1027.13 37.9763 1027.13 37.6597 1026.93 37.4645C1026.73 37.2692 1026.42 37.2692 1026.22 37.4645L1023.04 40.6464ZM1374.75 41.3536C1374.95 41.1583 1374.95 40.8417 1374.75 40.6464L1371.57 37.4645C1371.38 37.2692 1371.06 37.2692 1370.86 37.4645C1370.67 37.6597 1370.67 37.9763 1370.86 38.1716L1373.69 41L1370.86 43.8284C1370.67 44.0237 1370.67 44.3403 1370.86 44.5355C1371.06 44.7308 1371.38 44.7308 1371.57 44.5355L1374.75 41.3536ZM1023.39 41.5H1374.4V40.5H1023.39V41.5Z" fill="#F8DE1E"/>
<line x1="156.895" x2="156.895" y2="560" stroke="#F8DE1E" stroke-dasharray="12 12 12 12"/>
<line x1="564.895" x2="564.895" y2="560" stroke="#F8DE1E" stroke-dasharray="12 12 12 12"/>
<line x1="630.895" y1="118" x2="630.895" y2="710" stroke="#F8DE1E" stroke-dasharray="12 12 12 12"/>
<line x1="966.895" y1="118" x2="966.895" y2="710" stroke="#F8DE1E" stroke-dasharray="12 12 12 12"/>
<line x1="1020.89" x2="1020.89" y2="560" stroke="#F8DE1E" stroke-dasharray="12 12 12 12"/>
<line x1="1374.89" x2="1374.89" y2="560" stroke="#F8DE1E" stroke-dasharray="12 12 12 12"/>
<path d="M156.041 40.6464C155.846 40.8417 155.846 41.1583 156.041 41.3536L159.223 44.5355C159.418 44.7308 159.735 44.7308 159.93 44.5355C160.125 44.3403 160.125 44.0237 159.93 43.8284L157.102 41L159.93 38.1716C160.125 37.9763 160.125 37.6597 159.93 37.4645C159.735 37.2692 159.418 37.2692 159.223 37.4645L156.041 40.6464ZM564.748 41.3536C564.943 41.1583 564.943 40.8417 564.748 40.6464L561.566 37.4645C561.371 37.2692 561.054 37.2692 560.859 37.4645C560.664 37.6597 560.664 37.9763 560.859 38.1716L563.687 41L560.859 43.8284C560.664 44.0237 560.664 44.3403 560.859 44.5355C561.054 44.7308 561.371 44.7308 561.566 44.5355L564.748 41.3536ZM156.395 41.5H564.395V40.5H156.395V41.5Z" fill="#F8DE1E"/>
<path d="M633.041 665.646C632.846 665.842 632.846 666.158 633.041 666.354L636.223 669.536C636.418 669.731 636.735 669.731 636.93 669.536C637.125 669.34 637.125 669.024 636.93 668.828L634.102 666L636.93 663.172C637.125 662.976 637.125 662.66 636.93 662.464C636.735 662.269 636.418 662.269 636.223 662.464L633.041 665.646ZM965.748 666.354C965.943 666.158 965.943 665.842 965.748 665.646L962.566 662.464C962.371 662.269 962.054 662.269 961.859 662.464C961.664 662.66 961.664 662.976 961.859 663.172L964.687 666L961.859 668.828C961.664 669.024 961.664 669.34 961.859 669.536C962.054 669.731 962.371 669.731 962.566 669.536L965.748 666.354ZM633.395 666.5L965.395 666.5V665.5L633.395 665.5V666.5Z" fill="#F8DE1E"/>
<path d="M158.025 494.146C157.83 494.342 157.83 494.658 158.025 494.854L161.207 498.036C161.403 498.231 161.719 498.231 161.914 498.036C162.11 497.84 162.11 497.524 161.914 497.328L159.086 494.5L161.914 491.672C162.11 491.476 162.11 491.16 161.914 490.964C161.719 490.769 161.403 490.769 161.207 490.964L158.025 494.146ZM311.762 494.854C311.957 494.658 311.957 494.342 311.762 494.146L308.58 490.964C308.385 490.769 308.068 490.769 307.873 490.964C307.678 491.16 307.678 491.476 307.873 491.672L310.701 494.5L307.873 497.328C307.678 497.524 307.678 497.84 307.873 498.036C308.068 498.231 308.385 498.231 308.58 498.036L311.762 494.854ZM158.379 495H311.408V494H158.379V495Z" fill="#F8DE1E"/>
<path d="M633.041 493.646C632.846 493.842 632.846 494.158 633.041 494.354L636.223 497.536C636.418 497.731 636.735 497.731 636.93 497.536C637.125 497.34 637.125 497.024 636.93 496.828L634.102 494L636.93 491.172C637.125 490.976 637.125 490.66 636.93 490.464C636.735 490.269 636.418 490.269 636.223 490.464L633.041 493.646ZM773.748 494.354C773.943 494.158 773.943 493.842 773.748 493.646L770.566 490.464C770.371 490.269 770.054 490.269 769.859 490.464C769.664 490.66 769.664 490.976 769.859 491.172L772.687 494L769.859 496.828C769.664 497.024 769.664 497.34 769.859 497.536C770.054 497.731 770.371 497.731 770.566 497.536L773.748 494.354ZM633.395 494.5H773.395V493.5H633.395V494.5Z" fill="#F8DE1E"/>
<path d="M826.041 493.646C825.846 493.842 825.846 494.158 826.041 494.354L829.223 497.536C829.418 497.731 829.735 497.731 829.93 497.536C830.125 497.34 830.125 497.024 829.93 496.828L827.102 494L829.93 491.172C830.125 490.976 830.125 490.66 829.93 490.464C829.735 490.269 829.418 490.269 829.223 490.464L826.041 493.646ZM966.748 494.354C966.943 494.158 966.943 493.842 966.748 493.646L963.566 490.464C963.371 490.269 963.054 490.269 962.859 490.464C962.664 490.66 962.664 490.976 962.859 491.172L965.687 494L962.859 496.828C962.664 497.024 962.664 497.34 962.859 497.536C963.054 497.731 963.371 497.731 963.566 497.536L966.748 494.354ZM826.395 494.5H966.395V493.5H826.395V494.5Z" fill="#F8DE1E"/>
<path d="M411.041 493.646C410.846 493.842 410.846 494.158 411.041 494.354L414.223 497.536C414.418 497.731 414.735 497.731 414.93 497.536C415.125 497.34 415.125 497.024 414.93 496.828L412.102 494L414.93 491.172C415.125 490.976 415.125 490.66 414.93 490.464C414.735 490.269 414.418 490.269 414.223 490.464L411.041 493.646ZM564.777 494.354C564.973 494.158 564.973 493.842 564.777 493.646L561.596 490.464C561.4 490.269 561.084 490.269 560.888 490.464C560.693 490.66 560.693 490.976 560.888 491.172L563.717 494L560.888 496.828C560.693 497.024 560.693 497.34 560.888 497.536C561.084 497.731 561.4 497.731 561.596 497.536L564.777 494.354ZM411.395 494.5H564.424V493.5H411.395V494.5Z" fill="#F8DE1E"/>
<path d="M1020.04 406.146C1019.84 406.342 1019.84 406.658 1020.04 406.854L1023.22 410.036C1023.42 410.231 1023.73 410.231 1023.93 410.036C1024.12 409.84 1024.12 409.524 1023.93 409.328L1021.1 406.5L1023.93 403.672C1024.12 403.476 1024.12 403.16 1023.93 402.964C1023.73 402.769 1023.42 402.769 1023.22 402.964L1020.04 406.146ZM1157.75 406.854C1157.95 406.658 1157.95 406.342 1157.75 406.146L1154.57 402.964C1154.37 402.769 1154.06 402.769 1153.86 402.964C1153.67 403.16 1153.67 403.476 1153.86 403.672L1156.69 406.5L1153.86 409.328C1153.67 409.524 1153.67 409.84 1153.86 410.036C1154.06 410.231 1154.37 410.231 1154.57 410.036L1157.75 406.854ZM1020.39 407H1157.4V406H1020.39V407Z" fill="#F8DE1E"/>
<path d="M1226.04 405.646C1225.85 405.842 1225.85 406.158 1226.04 406.354L1229.22 409.536C1229.42 409.731 1229.73 409.731 1229.93 409.536C1230.13 409.34 1230.13 409.024 1229.93 408.828L1227.1 406L1229.93 403.172C1230.13 402.976 1230.13 402.66 1229.93 402.464C1229.73 402.269 1229.42 402.269 1229.22 402.464L1226.04 405.646ZM1373.75 406.354C1373.94 406.158 1373.94 405.842 1373.75 405.646L1370.57 402.464C1370.37 402.269 1370.05 402.269 1369.86 402.464C1369.66 402.66 1369.66 402.976 1369.86 403.172L1372.69 406L1369.86 408.828C1369.66 409.024 1369.66 409.34 1369.86 409.536C1370.05 409.731 1370.37 409.731 1370.57 409.536L1373.75 406.354ZM1226.39 406.5H1373.39V405.5H1226.39V406.5Z" fill="#F8DE1E"/>
</svg>
