<svg width="1322" height="643" viewBox="0 0 1322 643" fill="none" xmlns="http://www.w3.org/2000/svg">
<rect x="1" y="1" width="640" height="640" rx="60" fill="#F8DE1E" stroke="black"/>
<rect x="21" y="21" width="600" height="600" rx="55" fill="#F8DE1E" stroke="black"/>
<circle cx="83.5" cy="558.5" r="42.5" fill="#F8DE1E" stroke="black"/>
<circle cx="84" cy="558" r="35" fill="#F8DE1E" stroke="black"/>
<circle cx="83.5" cy="368.5" r="42.5" fill="#F8DE1E" stroke="black"/>
<circle cx="84" cy="368" r="35" fill="#F8DE1E" stroke="black"/>
<circle cx="83.5" cy="178.5" r="42.5" fill="#F8DE1E" stroke="black"/>
<circle cx="84" cy="178" r="35" fill="#F8DE1E" stroke="black"/>
<circle cx="83.5" cy="463.5" r="42.5" fill="#F8DE1E" stroke="black"/>
<circle cx="84" cy="463" r="35" fill="#F8DE1E" stroke="black"/>
<circle cx="83.5" cy="273.5" r="42.5" fill="#F8DE1E" stroke="black"/>
<circle cx="84" cy="273" r="35" fill="#F8DE1E" stroke="black"/>
<circle cx="83.5" cy="83.5" r="42.5" fill="#F8DE1E" stroke="black"/>
<circle cx="84" cy="83" r="35" fill="#F8DE1E" stroke="black"/>
<circle cx="178.5" cy="558.5" r="42.5" fill="#F8DE1E" stroke="black"/>
<circle cx="179" cy="558" r="35" fill="#F8DE1E" stroke="black"/>
<circle cx="178.5" cy="368.5" r="42.5" fill="#F8DE1E" stroke="black"/>
<circle cx="179" cy="368" r="35" fill="#F8DE1E" stroke="black"/>
<circle cx="178.5" cy="178.5" r="42.5" fill="#F8DE1E" stroke="black"/>
<circle cx="179" cy="178" r="35" fill="#F8DE1E" stroke="black"/>
<circle cx="178.5" cy="463.5" r="42.5" fill="#F8DE1E" stroke="black"/>
<circle cx="179" cy="463" r="35" fill="#F8DE1E" stroke="black"/>
<circle cx="178.5" cy="273.5" r="42.5" fill="#F8DE1E" stroke="black"/>
<circle cx="179" cy="273" r="35" fill="#F8DE1E" stroke="black"/>
<circle cx="178.5" cy="83.5" r="42.5" fill="#F8DE1E" stroke="black"/>
<circle cx="179" cy="83" r="35" fill="#F8DE1E" stroke="black"/>
<circle cx="273.5" cy="558.5" r="42.5" fill="#F8DE1E" stroke="black"/>
<circle cx="274" cy="558" r="35" fill="#F8DE1E" stroke="black"/>
<circle cx="273.5" cy="368.5" r="42.5" fill="#F8DE1E" stroke="black"/>
<circle cx="274" cy="368" r="35" fill="#F8DE1E" stroke="black"/>
<circle cx="273.5" cy="178.5" r="42.5" fill="#F8DE1E" stroke="black"/>
<circle cx="274" cy="178" r="35" fill="#F8DE1E" stroke="black"/>
<circle cx="273.5" cy="463.5" r="42.5" fill="#F8DE1E" stroke="black"/>
<circle cx="274" cy="463" r="35" fill="#F8DE1E" stroke="black"/>
<circle cx="273.5" cy="273.5" r="42.5" fill="#F8DE1E" stroke="black"/>
<circle cx="274" cy="273" r="35" fill="#F8DE1E" stroke="black"/>
<circle cx="273.5" cy="83.5" r="42.5" fill="#F8DE1E" stroke="black"/>
<circle cx="274" cy="83" r="35" fill="#F8DE1E" stroke="black"/>
<circle cx="368.5" cy="558.5" r="42.5" fill="#F8DE1E" stroke="black"/>
<circle cx="369" cy="558" r="35" fill="#F8DE1E" stroke="black"/>
<circle cx="368.5" cy="368.5" r="42.5" fill="#F8DE1E" stroke="black"/>
<circle cx="369" cy="368" r="35" fill="#F8DE1E" stroke="black"/>
<circle cx="368.5" cy="178.5" r="42.5" fill="#F8DE1E" stroke="black"/>
<circle cx="369" cy="178" r="35" fill="#F8DE1E" stroke="black"/>
<circle cx="368.5" cy="463.5" r="42.5" fill="#F8DE1E" stroke="black"/>
<circle cx="369" cy="463" r="35" fill="#F8DE1E" stroke="black"/>
<circle cx="368.5" cy="273.5" r="42.5" fill="#F8DE1E" stroke="black"/>
<circle cx="369" cy="273" r="35" fill="#F8DE1E" stroke="black"/>
<circle cx="368.5" cy="83.5" r="42.5" fill="#F8DE1E" stroke="black"/>
<circle cx="369" cy="83" r="35" fill="#F8DE1E" stroke="black"/>
<circle cx="463.5" cy="558.5" r="42.5" fill="#F8DE1E" stroke="black"/>
<circle cx="464" cy="558" r="35" fill="#F8DE1E" stroke="black"/>
<circle cx="463.5" cy="368.5" r="42.5" fill="#F8DE1E" stroke="black"/>
<circle cx="464" cy="368" r="35" fill="#F8DE1E" stroke="black"/>
<circle cx="463.5" cy="178.5" r="42.5" fill="#F8DE1E" stroke="black"/>
<circle cx="464" cy="178" r="35" fill="#F8DE1E" stroke="black"/>
<circle cx="463.5" cy="463.5" r="42.5" fill="#F8DE1E" stroke="black"/>
<circle cx="464" cy="463" r="35" fill="#F8DE1E" stroke="black"/>
<circle cx="463.5" cy="273.5" r="42.5" fill="#F8DE1E" stroke="black"/>
<circle cx="464" cy="273" r="35" fill="#F8DE1E" stroke="black"/>
<circle cx="463.5" cy="83.5" r="42.5" fill="#F8DE1E" stroke="black"/>
<circle cx="464" cy="83" r="35" fill="#F8DE1E" stroke="black"/>
<circle cx="558.5" cy="558.5" r="42.5" fill="#F8DE1E" stroke="black"/>
<circle cx="559" cy="558" r="35" fill="#F8DE1E" stroke="black"/>
<circle cx="558.5" cy="368.5" r="42.5" fill="#F8DE1E" stroke="black"/>
<circle cx="559" cy="368" r="35" fill="#F8DE1E" stroke="black"/>
<circle cx="558.5" cy="178.5" r="42.5" fill="#F8DE1E" stroke="black"/>
<circle cx="559" cy="178" r="35" fill="#F8DE1E" stroke="black"/>
<circle cx="558.5" cy="463.5" r="42.5" fill="#F8DE1E" stroke="black"/>
<circle cx="559" cy="463" r="35" fill="#F8DE1E" stroke="black"/>
<circle cx="558.5" cy="273.5" r="42.5" fill="#F8DE1E" stroke="black"/>
<circle cx="559" cy="273" r="35" fill="#F8DE1E" stroke="black"/>
<circle cx="558.5" cy="83.5" r="42.5" fill="#F8DE1E" stroke="black"/>
<circle cx="559" cy="83" r="35" fill="#F8DE1E" stroke="black"/>
<rect x="681" y="2" width="640" height="640" rx="60" fill="#8C7FE9" stroke="black"/>
<rect x="701" y="22" width="600" height="600" rx="55" fill="#8C7FE9" stroke="black"/>
<circle cx="763.5" cy="559.5" r="42.5" fill="#8C7FE9" stroke="black"/>
<circle cx="764" cy="559" r="35" fill="#8C7FE9" stroke="black"/>
<circle cx="763.5" cy="369.5" r="42.5" fill="#8C7FE9" stroke="black"/>
<circle cx="764" cy="369" r="35" fill="#8C7FE9" stroke="black"/>
<circle cx="763.5" cy="179.5" r="42.5" fill="#8C7FE9" stroke="black"/>
<circle cx="764" cy="179" r="35" fill="#8C7FE9" stroke="black"/>
<circle cx="763.5" cy="464.5" r="42.5" fill="#8C7FE9" stroke="black"/>
<circle cx="764" cy="464" r="35" fill="#8C7FE9" stroke="black"/>
<circle cx="763.5" cy="274.5" r="42.5" fill="#8C7FE9" stroke="black"/>
<circle cx="764" cy="274" r="35" fill="#8C7FE9" stroke="black"/>
<circle cx="763.5" cy="84.5" r="42.5" fill="#8C7FE9" stroke="black"/>
<circle cx="764" cy="84" r="35" fill="#8C7FE9" stroke="black"/>
<circle cx="858.5" cy="559.5" r="42.5" fill="#8C7FE9" stroke="black"/>
<circle cx="859" cy="559" r="35" fill="#8C7FE9" stroke="black"/>
<circle cx="858.5" cy="369.5" r="42.5" fill="#8C7FE9" stroke="black"/>
<circle cx="859" cy="369" r="35" fill="#8C7FE9" stroke="black"/>
<circle cx="858.5" cy="179.5" r="42.5" fill="#8C7FE9" stroke="black"/>
<circle cx="859" cy="179" r="35" fill="#8C7FE9" stroke="black"/>
<circle cx="858.5" cy="464.5" r="42.5" fill="#8C7FE9" stroke="black"/>
<circle cx="859" cy="464" r="35" fill="#8C7FE9" stroke="black"/>
<circle cx="858.5" cy="274.5" r="42.5" fill="#8C7FE9" stroke="black"/>
<circle cx="859" cy="274" r="35" fill="#8C7FE9" stroke="black"/>
<circle cx="858.5" cy="84.5" r="42.5" fill="#8C7FE9" stroke="black"/>
<circle cx="859" cy="84" r="35" fill="#8C7FE9" stroke="black"/>
<circle cx="953.5" cy="559.5" r="42.5" fill="#8C7FE9" stroke="black"/>
<circle cx="954" cy="559" r="35" fill="#8C7FE9" stroke="black"/>
<circle cx="953.5" cy="369.5" r="42.5" fill="#8C7FE9" stroke="black"/>
<circle cx="954" cy="369" r="35" fill="#8C7FE9" stroke="black"/>
<circle cx="953.5" cy="179.5" r="42.5" fill="#8C7FE9" stroke="black"/>
<circle cx="954" cy="179" r="35" fill="#8C7FE9" stroke="black"/>
<circle cx="953.5" cy="464.5" r="42.5" fill="#8C7FE9" stroke="black"/>
<circle cx="954" cy="464" r="35" fill="#8C7FE9" stroke="black"/>
<circle cx="953.5" cy="274.5" r="42.5" fill="#8C7FE9" stroke="black"/>
<circle cx="954" cy="274" r="35" fill="#8C7FE9" stroke="black"/>
<circle cx="953.5" cy="84.5" r="42.5" fill="#8C7FE9" stroke="black"/>
<circle cx="954" cy="84" r="35" fill="#8C7FE9" stroke="black"/>
<circle cx="1048.5" cy="559.5" r="42.5" fill="#8C7FE9" stroke="black"/>
<circle cx="1049" cy="559" r="35" fill="#8C7FE9" stroke="black"/>
<circle cx="1048.5" cy="369.5" r="42.5" fill="#8C7FE9" stroke="black"/>
<circle cx="1049" cy="369" r="35" fill="#8C7FE9" stroke="black"/>
<circle cx="1048.5" cy="179.5" r="42.5" fill="#8C7FE9" stroke="black"/>
<circle cx="1049" cy="179" r="35" fill="#8C7FE9" stroke="black"/>
<circle cx="1048.5" cy="464.5" r="42.5" fill="#8C7FE9" stroke="black"/>
<circle cx="1049" cy="464" r="35" fill="#8C7FE9" stroke="black"/>
<circle cx="1048.5" cy="274.5" r="42.5" fill="#8C7FE9" stroke="black"/>
<circle cx="1049" cy="274" r="35" fill="#8C7FE9" stroke="black"/>
<circle cx="1048.5" cy="84.5" r="42.5" fill="#8C7FE9" stroke="black"/>
<circle cx="1049" cy="84" r="35" fill="#8C7FE9" stroke="black"/>
<circle cx="1143.5" cy="559.5" r="42.5" fill="#8C7FE9" stroke="black"/>
<circle cx="1144" cy="559" r="35" fill="#8C7FE9" stroke="black"/>
<circle cx="1143.5" cy="369.5" r="42.5" fill="#8C7FE9" stroke="black"/>
<circle cx="1144" cy="369" r="35" fill="#8C7FE9" stroke="black"/>
<circle cx="1143.5" cy="179.5" r="42.5" fill="#8C7FE9" stroke="black"/>
<circle cx="1144" cy="179" r="35" fill="#8C7FE9" stroke="black"/>
<circle cx="1143.5" cy="464.5" r="42.5" fill="#8C7FE9" stroke="black"/>
<circle cx="1144" cy="464" r="35" fill="#8C7FE9" stroke="black"/>
<circle cx="1143.5" cy="274.5" r="42.5" fill="#8C7FE9" stroke="black"/>
<circle cx="1144" cy="274" r="35" fill="#8C7FE9" stroke="black"/>
<circle cx="1143.5" cy="84.5" r="42.5" fill="#8C7FE9" stroke="black"/>
<circle cx="1144" cy="84" r="35" fill="#8C7FE9" stroke="black"/>
<circle cx="1238.5" cy="559.5" r="42.5" fill="#8C7FE9" stroke="black"/>
<circle cx="1239" cy="559" r="35" fill="#8C7FE9" stroke="black"/>
<circle cx="1238.5" cy="369.5" r="42.5" fill="#8C7FE9" stroke="black"/>
<circle cx="1239" cy="369" r="35" fill="#8C7FE9" stroke="black"/>
<circle cx="1238.5" cy="179.5" r="42.5" fill="#8C7FE9" stroke="black"/>
<circle cx="1239" cy="179" r="35" fill="#8C7FE9" stroke="black"/>
<circle cx="1238.5" cy="464.5" r="42.5" fill="#8C7FE9" stroke="black"/>
<circle cx="1239" cy="464" r="35" fill="#8C7FE9" stroke="black"/>
<circle cx="1238.5" cy="274.5" r="42.5" fill="#8C7FE9" stroke="black"/>
<circle cx="1239" cy="274" r="35" fill="#8C7FE9" stroke="black"/>
<circle cx="1238.5" cy="84.5" r="42.5" fill="#8C7FE9" stroke="black"/>
<circle cx="1239" cy="84" r="35" fill="#8C7FE9" stroke="black"/>
</svg>
