<svg width="1442" height="558" viewBox="0 0 1442 558" fill="none" xmlns="http://www.w3.org/2000/svg">
<path fill-rule="evenodd" clip-rule="evenodd" d="M0.984375 499.17C32.4312 534.299 82.3186 557 138.484 557C233.622 557 310.747 491.867 310.747 411.523V146.477C310.747 136.572 320.254 128.541 331.986 128.541C343.714 128.541 353.224 136.572 353.224 146.477V411.523C353.224 491.867 430.348 557 525.484 557C620.621 557 697.744 491.867 697.744 411.523V146.477C697.744 136.572 707.255 128.541 718.983 128.541C730.715 128.541 740.221 136.572 740.221 146.477V411.523C740.221 491.867 817.345 557 912.486 557C1007.62 557 1084.75 491.867 1084.75 411.523V146.477C1084.75 136.572 1094.26 128.541 1105.98 128.541C1117.71 128.541 1127.22 136.572 1127.22 146.477V411.523C1127.22 491.867 1204.35 557 1299.48 557C1358.09 557 1409.87 532.281 1440.98 494.514V7.74572C1371.26 26.3671 1320.72 81.4377 1320.72 146.477V411.523C1320.72 421.428 1311.21 429.459 1299.48 429.459C1287.76 429.459 1278.25 421.428 1278.25 411.523V146.477C1278.25 66.1323 1201.12 1 1105.98 1C1010.85 1 933.724 66.1323 933.724 146.477V411.523C933.724 421.428 924.214 429.459 912.486 429.459C900.754 429.459 891.247 421.428 891.247 411.523V146.477C891.247 66.1323 814.124 1 718.983 1C623.846 1 546.723 66.1323 546.723 146.477V411.523C546.723 421.428 537.212 429.459 525.484 429.459C513.757 429.459 504.246 421.428 504.246 411.523V146.477C504.246 66.1323 427.122 1 331.986 1C236.847 1 159.722 66.1323 159.722 146.477V411.523C159.722 421.428 150.214 429.459 138.484 429.459C126.755 429.459 117.247 421.428 117.247 411.523V146.477C117.247 82.6879 68.6317 28.488 0.984375 8.85976V499.17Z" fill="#0D77BE"/>
<path d="M0.984375 499.17H0.484375V499.361L0.611835 499.504L0.984375 499.17ZM1440.98 494.514L1441.37 494.832L1441.48 494.694V494.514H1440.98ZM1440.98 7.74572H1441.48V7.09465L1440.86 7.26265L1440.98 7.74572ZM0.984375 8.85976L1.12371 8.37957L0.484375 8.19406V8.85976H0.984375ZM0.611835 499.504C32.1604 534.747 82.1871 557.5 138.484 557.5V556.5C82.4501 556.5 32.702 533.852 1.35692 498.837L0.611835 499.504ZM138.484 557.5C233.816 557.5 311.247 492.219 311.247 411.523H310.247C310.247 491.515 233.428 556.5 138.484 556.5V557.5ZM311.247 411.523V146.477H310.247V411.523H311.247ZM311.247 146.477C311.247 136.924 320.447 129.041 331.986 129.041V128.041C320.06 128.041 310.247 136.22 310.247 146.477H311.247ZM331.986 129.041C343.52 129.041 352.724 136.924 352.724 146.477H353.724C353.724 136.22 343.907 128.041 331.986 128.041V129.041ZM352.724 146.477V411.523H353.724V146.477H352.724ZM352.724 411.523C352.724 492.219 430.154 557.5 525.484 557.5V556.5C430.541 556.5 353.724 491.515 353.724 411.523H352.724ZM525.484 557.5C620.815 557.5 698.244 492.219 698.244 411.523H697.244C697.244 491.515 620.427 556.5 525.484 556.5V557.5ZM698.244 411.523V146.477H697.244V411.523H698.244ZM698.244 146.477C698.244 136.924 707.449 129.041 718.983 129.041V128.041C707.061 128.041 697.244 136.22 697.244 146.477H698.244ZM718.983 129.041C730.521 129.041 739.721 136.924 739.721 146.477H740.721C740.721 136.22 730.909 128.041 718.983 128.041V129.041ZM739.721 146.477V411.523H740.721V146.477H739.721ZM739.721 411.523C739.721 492.219 817.151 557.5 912.486 557.5V556.5C817.539 556.5 740.721 491.515 740.721 411.523H739.721ZM912.486 557.5C1007.82 557.5 1085.25 492.219 1085.25 411.523H1084.25C1084.25 491.515 1007.43 556.5 912.486 556.5V557.5ZM1085.25 411.523V146.477H1084.25V411.523H1085.25ZM1085.25 146.477C1085.25 136.924 1094.45 129.041 1105.98 129.041V128.041C1094.06 128.041 1084.25 136.22 1084.25 146.477H1085.25ZM1105.98 129.041C1117.52 129.041 1126.72 136.924 1126.72 146.477H1127.72C1127.72 136.22 1117.91 128.041 1105.98 128.041V129.041ZM1126.72 146.477V411.523H1127.72V146.477H1126.72ZM1126.72 411.523C1126.72 492.219 1204.15 557.5 1299.48 557.5V556.5C1204.54 556.5 1127.72 491.515 1127.72 411.523H1126.72ZM1299.48 557.5C1358.23 557.5 1410.15 532.724 1441.37 494.832L1440.6 494.197C1409.58 531.838 1357.96 556.5 1299.48 556.5V557.5ZM1441.48 494.514V7.74572H1440.48V494.514H1441.48ZM1440.86 7.26265C1370.97 25.9272 1320.22 81.1571 1320.22 146.477H1321.22C1321.22 81.7184 1371.55 26.807 1441.11 8.22878L1440.86 7.26265ZM1320.22 146.477V411.523H1321.22V146.477H1320.22ZM1320.22 411.523C1320.22 421.076 1311.02 428.959 1299.48 428.959V429.959C1311.41 429.959 1321.22 421.78 1321.22 411.523H1320.22ZM1299.48 428.959C1287.95 428.959 1278.75 421.076 1278.75 411.523H1277.75C1277.75 421.78 1287.56 429.959 1299.48 429.959V428.959ZM1278.75 411.523V146.477H1277.75V411.523H1278.75ZM1278.75 146.477C1278.75 65.7803 1201.32 0.5 1105.98 0.5V1.5C1200.93 1.5 1277.75 66.4843 1277.75 146.477H1278.75ZM1105.98 0.5C1010.65 0.5 933.224 65.7803 933.224 146.477H934.224C934.224 66.4843 1011.04 1.5 1105.98 1.5V0.5ZM933.224 146.477V411.523H934.224V146.477H933.224ZM933.224 411.523C933.224 421.076 924.02 428.959 912.486 428.959V429.959C924.407 429.959 934.224 421.78 934.224 411.523H933.224ZM912.486 428.959C900.947 428.959 891.747 421.076 891.747 411.523H890.747C890.747 421.78 900.56 429.959 912.486 429.959V428.959ZM891.747 411.523V146.477H890.747V411.523H891.747ZM891.747 146.477C891.747 65.7803 814.317 0.5 718.983 0.5V1.5C813.93 1.5 890.747 66.4843 890.747 146.477H891.747ZM718.983 0.5C623.653 0.5 546.223 65.7803 546.223 146.477H547.223C547.223 66.4843 624.04 1.5 718.983 1.5V0.5ZM546.223 146.477V411.523H547.223V146.477H546.223ZM546.223 411.523C546.223 421.076 537.019 428.959 525.484 428.959V429.959C537.406 429.959 547.223 421.78 547.223 411.523H546.223ZM525.484 428.959C513.95 428.959 504.746 421.076 504.746 411.523H503.746C503.746 421.78 513.563 429.959 525.484 429.959V428.959ZM504.746 411.523V146.477H503.746V411.523H504.746ZM504.746 146.477C504.746 65.7803 427.316 0.5 331.986 0.5V1.5C426.929 1.5 503.746 66.4843 503.746 146.477H504.746ZM331.986 0.5C236.653 0.5 159.222 65.7803 159.222 146.477H160.222C160.222 66.4843 237.04 1.5 331.986 1.5V0.5ZM159.222 146.477V411.523H160.222V146.477H159.222ZM159.222 411.523C159.222 421.076 150.02 428.959 138.484 428.959V429.959C150.407 429.959 160.222 421.78 160.222 411.523H159.222ZM138.484 428.959C126.949 428.959 117.747 421.076 117.747 411.523H116.747C116.747 421.78 126.561 429.959 138.484 429.959V428.959ZM117.747 411.523V146.477H116.747V411.523H117.747ZM117.747 146.477C117.747 82.413 68.9297 28.0538 1.12371 8.37957L0.845044 9.33996C68.3337 28.9221 116.747 82.9628 116.747 146.477H117.747ZM0.484375 8.85976V499.17H1.48438V8.85976H0.484375Z" fill="black"/>
</svg>
